<?xml version="1.0" encoding="utf-8" standalone="no"?>
<!DOCTYPE svg PUBLIC "-//W3C//DTD SVG 1.1//EN"
  "http://www.w3.org/Graphics/SVG/1.1/DTD/svg11.dtd">
<svg xmlns:xlink="http://www.w3.org/1999/xlink" width="824.5182pt" height="360.12pt" viewBox="0 0 824.5182 360.12" xmlns="http://www.w3.org/2000/svg" version="1.1">
 <metadata>
  <rdf:RDF xmlns:dc="http://purl.org/dc/elements/1.1/" xmlns:cc="http://creativecommons.org/ns#" xmlns:rdf="http://www.w3.org/1999/02/22-rdf-syntax-ns#">
   <cc:Work>
    <dc:type rdf:resource="http://purl.org/dc/dcmitype/StillImage"/>
    <dc:date>2026-10-05T19:54:28.822685</dc:date>
    <dc:format>image/svg+xml</dc:format>
    <dc:creator>
     <cc:Agent>
      <dc:title>Matplotlib v3.11.2, https://matplotlib.org/</dc:title>
     </cc:Agent>
    </dc:creator>
   </cc:Work>
  </rdf:RDF>
 </metadata>
 <defs>
  <style type="text/css">*{stroke-linejoin: round; stroke-linecap: butt}</style>
 </defs>
 <g id="figure_1">
  <g id="patch_1">
   <path d="M 0 360.12 
L 824.5182 360.12 
L 824.5182 0 
L 0 0 
L 0 360.12 
z
" style="fill: none"/>
  </g>
  <g id="axes_1">
   <g id="patch_2">
    <path d="M 269.962754 236.147066 
Q 269.962754 228.316186 269.962754 220.485305 
" clip-path="url(#p7a513bd170)" style="fill: none; stroke: #8a8a8a; stroke-width: 1.1; stroke-linecap: round"/>
    <path d="M 271.562754 232.947066 
L 269.962754 236.147066 
L 268.362754 232.947066 
z
" clip-path="url(#p7a513bd170)" style="fill: #8a8a8a; stroke: #8a8a8a; stroke-width: 1.1; stroke-linecap: round"/>
    <path d="M 268.362754 223.685305 
L 269.962754 220.485305 
L 271.562754 223.685305 
z
" clip-path="url(#p7a513bd170)" style="fill: #8a8a8a; stroke: #8a8a8a; stroke-width: 1.1; stroke-linecap: round"/>
   </g>
   <g id="patch_3">
    <path d="M 47.820329 239.377906 
Q 47.820329 172.127816 47.820329 107.113793 
" clip-path="url(#p7a513bd170)" style="fill: none; stroke: #3f8f5f; stroke-width: 2; stroke-linecap: round"/>
    <path d="M 45.220329 112.313793 
L 47.820329 107.113793 
L 50.420329 112.313793 
z
" clip-path="url(#p7a513bd170)" style="fill: #3f8f5f; stroke: #3f8f5f; stroke-width: 2; stroke-linecap: round"/>
   </g>
   <g id="patch_4">
    <path d="M 70.669264 104.877725 
Q 70.669264 172.127816 70.669264 237.141838 
" clip-path="url(#p7a513bd170)" style="fill: none; stroke: #3f8f5f; stroke-width: 2; stroke-linecap: round"/>
    <path d="M 73.269264 231.941838 
L 70.669264 237.141838 
L 68.069264 231.941838 
z
" clip-path="url(#p7a513bd170)" style="fill: #3f8f5f; stroke: #3f8f5f; stroke-width: 2; stroke-linecap: round"/>
   </g>
   <g id="patch_5">
    <path d="M 134.138528 239.377906 
Q 134.138528 172.127816 134.138528 107.113793 
" clip-path="url(#p7a513bd170)" style="fill: none; stroke: #3f8f5f; stroke-width: 2; stroke-linecap: round"/>
    <path d="M 131.538528 112.313793 
L 134.138528 107.113793 
L 136.738528 112.313793 
z
" clip-path="url(#p7a513bd170)" style="fill: #3f8f5f; stroke: #3f8f5f; stroke-width: 2; stroke-linecap: round"/>
   </g>
   <g id="patch_6">
    <path d="M 156.987464 104.877725 
Q 156.987464 161.066945 156.987464 215.020098 
" clip-path="url(#p7a513bd170)" style="fill: none; stroke: #c00000; stroke-width: 2; stroke-linecap: round"/>
    <path d="M 159.587464 209.820098 
L 156.987464 215.020098 
L 154.387464 209.820098 
z
" clip-path="url(#p7a513bd170)" style="fill: #c00000; stroke: #c00000; stroke-width: 2; stroke-linecap: round"/>
   </g>
   <g id="patch_7">
    <path d="M 220.456728 217.256166 
Q 220.456728 150.006075 220.456728 84.992053 
" clip-path="url(#p7a513bd170)" style="fill: none; stroke: #3f8f5f; stroke-width: 2; stroke-linecap: round"/>
    <path d="M 217.856728 90.192053 
L 220.456728 84.992053 
L 223.056728 90.192053 
z
" clip-path="url(#p7a513bd170)" style="fill: #3f8f5f; stroke: #3f8f5f; stroke-width: 2; stroke-linecap: round"/>
   </g>
   <g id="patch_8">
    <path d="M 243.305663 82.755985 
Q 243.305663 161.066945 243.305663 237.141838 
" clip-path="url(#p7a513bd170)" style="fill: none; stroke: #3a62b8; stroke-width: 2; stroke-linecap: round"/>
    <path d="M 245.905663 231.941838 
L 243.305663 237.141838 
L 240.705663 231.941838 
z
" clip-path="url(#p7a513bd170)" style="fill: #3a62b8; stroke: #3a62b8; stroke-width: 2; stroke-linecap: round"/>
   </g>
   <g id="line2d_1">
    <path d="M 19.893853 239.377906 
L 276.30968 239.377906 
" clip-path="url(#p7a513bd170)" style="fill: none; stroke: #8a8a8a; stroke-width: 2; stroke-linecap: square"/>
   </g>
   <g id="line2d_2">
    <path d="M 19.893853 217.256166 
L 276.30968 217.256166 
" clip-path="url(#p7a513bd170)" style="fill: none; stroke: #8a8a8a; stroke-width: 2; stroke-linecap: square"/>
   </g>
   <g id="line2d_3">
    <path d="M 19.893853 104.877725 
L 276.30968 104.877725 
" clip-path="url(#p7a513bd170)" style="fill: none; stroke-dasharray: 7,5.6; stroke-dashoffset: 0; stroke: #888888; stroke-width: 1.4"/>
   </g>
   <g id="line2d_4">
    <path d="M 19.893853 82.755985 
L 276.30968 82.755985 
" clip-path="url(#p7a513bd170)" style="fill: none; stroke-dasharray: 7,5.6; stroke-dashoffset: 0; stroke: #888888; stroke-width: 1.4"/>
   </g>
   <g id="text_1">
    <!-- $v = 0$ -->
    <g style="fill: #8a8a8a" transform="translate(286.464763 245.019819) scale(0.115 -0.115)">
     <defs>
      <path id="DejaVuSans-Oblique-59" d="M 459 3500 
L 1069 3500 
L 1581 525 
L 3256 3500 
L 3866 3500 
L 1875 0 
L 1100 0 
L 459 3500 
z
" transform="scale(0.015625)"/>
      <path id="DejaVuSans-20" d="M 678 2906 
L 4684 2906 
L 4684 2381 
L 678 2381 
L 678 2906 
z
M 678 1631 
L 4684 1631 
L 4684 1100 
L 678 1100 
L 678 1631 
z
" transform="scale(0.015625)"/>
      <path id="DejaVuSans-13" d="M 2034 4250 
Q 1547 4250 1301 3770 
Q 1056 3291 1056 2328 
Q 1056 1369 1301 889 
Q 1547 409 2034 409 
Q 2525 409 2770 889 
Q 3016 1369 3016 2328 
Q 3016 3291 2770 3770 
Q 2525 4250 2034 4250 
z
M 2034 4750 
Q 2819 4750 3233 4129 
Q 3647 3509 3647 2328 
Q 3647 1150 3233 529 
Q 2819 -91 2034 -91 
Q 1250 -91 836 529 
Q 422 1150 422 2328 
Q 422 3509 836 4129 
Q 1250 4750 2034 4750 
z
" transform="scale(0.015625)"/>
     </defs>
     <use xlink:href="#DejaVuSans-Oblique-59" transform="translate(0 0.78125)"/>
     <use xlink:href="#DejaVuSans-20" transform="translate(78.662109 0.78125)"/>
     <use xlink:href="#DejaVuSans-13" transform="translate(181.933594 0.78125)"/>
    </g>
   </g>
   <g id="text_2">
    <!-- $v = 1$ -->
    <g style="fill: #8a8a8a" transform="translate(286.464763 217.588862) scale(0.115 -0.115)">
     <defs>
      <path id="DejaVuSans-14" d="M 794 531 
L 1825 531 
L 1825 4091 
L 703 3866 
L 703 4441 
L 1819 4666 
L 2450 4666 
L 2450 531 
L 3481 531 
L 3481 0 
L 794 0 
L 794 531 
z
" transform="scale(0.015625)"/>
     </defs>
     <use xlink:href="#DejaVuSans-Oblique-59" transform="translate(0 0.09375)"/>
     <use xlink:href="#DejaVuSans-20" transform="translate(78.662109 0.09375)"/>
     <use xlink:href="#DejaVuSans-14" transform="translate(181.933594 0.09375)"/>
    </g>
   </g>
   <g id="text_3">
    <!-- virtual states -->
    <g style="fill: #888888" transform="translate(286.464763 118.761429) scale(0.11 -0.11)">
     <defs>
      <path id="DejaVuSans-59" d="M 191 3500 
L 800 3500 
L 1894 563 
L 2988 3500 
L 3597 3500 
L 2284 0 
L 1503 0 
L 191 3500 
z
" transform="scale(0.015625)"/>
      <path id="DejaVuSans-4c" d="M 603 3500 
L 1178 3500 
L 1178 0 
L 603 0 
L 603 3500 
z
M 603 4863 
L 1178 4863 
L 1178 4134 
L 603 4134 
L 603 4863 
z
" transform="scale(0.015625)"/>
      <path id="DejaVuSans-55" d="M 2631 2963 
Q 2534 3019 2420 3045 
Q 2306 3072 2169 3072 
Q 1681 3072 1420 2755 
Q 1159 2438 1159 1844 
L 1159 0 
L 581 0 
L 581 3500 
L 1159 3500 
L 1159 2956 
Q 1341 3275 1631 3429 
Q 1922 3584 2338 3584 
Q 2397 3584 2469 3576 
Q 2541 3569 2628 3553 
L 2631 2963 
z
" transform="scale(0.015625)"/>
      <path id="DejaVuSans-57" d="M 1172 4494 
L 1172 3500 
L 2356 3500 
L 2356 3053 
L 1172 3053 
L 1172 1153 
Q 1172 725 1289 603 
Q 1406 481 1766 481 
L 2356 481 
L 2356 0 
L 1766 0 
Q 1100 0 847 248 
Q 594 497 594 1153 
L 594 3053 
L 172 3053 
L 172 3500 
L 594 3500 
L 594 4494 
L 1172 4494 
z
" transform="scale(0.015625)"/>
      <path id="DejaVuSans-58" d="M 544 1381 
L 544 3500 
L 1119 3500 
L 1119 1403 
Q 1119 906 1312 657 
Q 1506 409 1894 409 
Q 2359 409 2629 706 
Q 2900 1003 2900 1516 
L 2900 3500 
L 3475 3500 
L 3475 0 
L 2900 0 
L 2900 538 
Q 2691 219 2414 64 
Q 2138 -91 1772 -91 
Q 1169 -91 856 284 
Q 544 659 544 1381 
z
M 1991 3584 
L 1991 3584 
z
" transform="scale(0.015625)"/>
      <path id="DejaVuSans-44" d="M 2194 1759 
Q 1497 1759 1228 1600 
Q 959 1441 959 1056 
Q 959 750 1161 570 
Q 1363 391 1709 391 
Q 2188 391 2477 730 
Q 2766 1069 2766 1631 
L 2766 1759 
L 2194 1759 
z
M 3341 1997 
L 3341 0 
L 2766 0 
L 2766 531 
Q 2569 213 2275 61 
Q 1981 -91 1556 -91 
Q 1019 -91 701 211 
Q 384 513 384 1019 
Q 384 1609 779 1909 
Q 1175 2209 1959 2209 
L 2766 2209 
L 2766 2266 
Q 2766 2663 2505 2880 
Q 2244 3097 1772 3097 
Q 1472 3097 1187 3025 
Q 903 2953 641 2809 
L 641 3341 
Q 956 3463 1253 3523 
Q 1550 3584 1831 3584 
Q 2591 3584 2966 3190 
Q 3341 2797 3341 1997 
z
" transform="scale(0.015625)"/>
      <path id="DejaVuSans-4f" d="M 603 4863 
L 1178 4863 
L 1178 0 
L 603 0 
L 603 4863 
z
" transform="scale(0.015625)"/>
      <path id="DejaVuSans-3" transform="scale(0.015625)"/>
      <path id="DejaVuSans-56" d="M 2834 3397 
L 2834 2853 
Q 2591 2978 2328 3040 
Q 2066 3103 1784 3103 
Q 1356 3103 1142 2972 
Q 928 2841 928 2578 
Q 928 2378 1081 2264 
Q 1234 2150 1697 2047 
L 1894 2003 
Q 2506 1872 2764 1633 
Q 3022 1394 3022 966 
Q 3022 478 2636 193 
Q 2250 -91 1575 -91 
Q 1294 -91 989 -36 
Q 684 19 347 128 
L 347 722 
Q 666 556 975 473 
Q 1284 391 1588 391 
Q 1994 391 2212 530 
Q 2431 669 2431 922 
Q 2431 1156 2273 1281 
Q 2116 1406 1581 1522 
L 1381 1569 
Q 847 1681 609 1914 
Q 372 2147 372 2553 
Q 372 3047 722 3315 
Q 1072 3584 1716 3584 
Q 2034 3584 2315 3537 
Q 2597 3491 2834 3397 
z
" transform="scale(0.015625)"/>
      <path id="DejaVuSans-48" d="M 3597 1894 
L 3597 1613 
L 953 1613 
Q 991 1019 1311 708 
Q 1631 397 2203 397 
Q 2534 397 2845 478 
Q 3156 559 3463 722 
L 3463 178 
Q 3153 47 2828 -22 
Q 2503 -91 2169 -91 
Q 1331 -91 842 396 
Q 353 884 353 1716 
Q 353 2575 817 3079 
Q 1281 3584 2069 3584 
Q 2775 3584 3186 3129 
Q 3597 2675 3597 1894 
z
M 3022 2063 
Q 3016 2534 2758 2815 
Q 2500 3097 2075 3097 
Q 1594 3097 1305 2825 
Q 1016 2553 972 2059 
L 3022 2063 
z
" transform="scale(0.015625)"/>
     </defs>
     <use xlink:href="#DejaVuSans-59"/>
     <use xlink:href="#DejaVuSans-4c" transform="translate(59.1875 0)"/>
     <use xlink:href="#DejaVuSans-55" transform="translate(86.96875 0)"/>
     <use xlink:href="#DejaVuSans-57" transform="translate(128.078125 0)"/>
     <use xlink:href="#DejaVuSans-58" transform="translate(167.28125 0)"/>
     <use xlink:href="#DejaVuSans-44" transform="translate(230.65625 0)"/>
     <use xlink:href="#DejaVuSans-4f" transform="translate(291.9375 0)"/>
     <use xlink:href="#DejaVuSans-3" transform="translate(319.71875 0)"/>
     <use xlink:href="#DejaVuSans-56" transform="translate(351.5 0)"/>
     <use xlink:href="#DejaVuSans-57" transform="translate(403.59375 0)"/>
     <use xlink:href="#DejaVuSans-44" transform="translate(442.796875 0)"/>
     <use xlink:href="#DejaVuSans-57" transform="translate(504.078125 0)"/>
     <use xlink:href="#DejaVuSans-48" transform="translate(543.28125 0)"/>
     <use xlink:href="#DejaVuSans-56" transform="translate(604.8125 0)"/>
    </g>
    <!-- (not eigenstates) -->
    <g style="fill: #888888" transform="translate(286.464763 131.964437) scale(0.11 -0.11)">
     <defs>
      <path id="DejaVuSans-b" d="M 1984 4856 
Q 1566 4138 1362 3434 
Q 1159 2731 1159 2009 
Q 1159 1288 1364 580 
Q 1569 -128 1984 -844 
L 1484 -844 
Q 1016 -109 783 600 
Q 550 1309 550 2009 
Q 550 2706 781 3412 
Q 1013 4119 1484 4856 
L 1984 4856 
z
" transform="scale(0.015625)"/>
      <path id="DejaVuSans-51" d="M 3513 2113 
L 3513 0 
L 2938 0 
L 2938 2094 
Q 2938 2591 2744 2837 
Q 2550 3084 2163 3084 
Q 1697 3084 1428 2787 
Q 1159 2491 1159 1978 
L 1159 0 
L 581 0 
L 581 3500 
L 1159 3500 
L 1159 2956 
Q 1366 3272 1645 3428 
Q 1925 3584 2291 3584 
Q 2894 3584 3203 3211 
Q 3513 2838 3513 2113 
z
" transform="scale(0.015625)"/>
      <path id="DejaVuSans-52" d="M 1959 3097 
Q 1497 3097 1228 2736 
Q 959 2375 959 1747 
Q 959 1119 1226 758 
Q 1494 397 1959 397 
Q 2419 397 2687 759 
Q 2956 1122 2956 1747 
Q 2956 2369 2687 2733 
Q 2419 3097 1959 3097 
z
M 1959 3584 
Q 2709 3584 3137 3096 
Q 3566 2609 3566 1747 
Q 3566 888 3137 398 
Q 2709 -91 1959 -91 
Q 1206 -91 779 398 
Q 353 888 353 1747 
Q 353 2609 779 3096 
Q 1206 3584 1959 3584 
z
" transform="scale(0.015625)"/>
      <path id="DejaVuSans-4a" d="M 2906 1791 
Q 2906 2416 2648 2759 
Q 2391 3103 1925 3103 
Q 1463 3103 1205 2759 
Q 947 2416 947 1791 
Q 947 1169 1205 825 
Q 1463 481 1925 481 
Q 2391 481 2648 825 
Q 2906 1169 2906 1791 
z
M 3481 434 
Q 3481 -459 3084 -895 
Q 2688 -1331 1869 -1331 
Q 1566 -1331 1297 -1286 
Q 1028 -1241 775 -1147 
L 775 -588 
Q 1028 -725 1275 -790 
Q 1522 -856 1778 -856 
Q 2344 -856 2625 -561 
Q 2906 -266 2906 331 
L 2906 616 
Q 2728 306 2450 153 
Q 2172 0 1784 0 
Q 1141 0 747 490 
Q 353 981 353 1791 
Q 353 2603 747 3093 
Q 1141 3584 1784 3584 
Q 2172 3584 2450 3431 
Q 2728 3278 2906 2969 
L 2906 3500 
L 3481 3500 
L 3481 434 
z
" transform="scale(0.015625)"/>
      <path id="DejaVuSans-c" d="M 513 4856 
L 1013 4856 
Q 1481 4119 1714 3412 
Q 1947 2706 1947 2009 
Q 1947 1309 1714 600 
Q 1481 -109 1013 -844 
L 513 -844 
Q 928 -128 1133 580 
Q 1338 1288 1338 2009 
Q 1338 2731 1133 3434 
Q 928 4138 513 4856 
z
" transform="scale(0.015625)"/>
     </defs>
     <use xlink:href="#DejaVuSans-b"/>
     <use xlink:href="#DejaVuSans-51" transform="translate(39.015625 0)"/>
     <use xlink:href="#DejaVuSans-52" transform="translate(102.390625 0)"/>
     <use xlink:href="#DejaVuSans-57" transform="translate(163.578125 0)"/>
     <use xlink:href="#DejaVuSans-3" transform="translate(202.78125 0)"/>
     <use xlink:href="#DejaVuSans-48" transform="translate(234.5625 0)"/>
     <use xlink:href="#DejaVuSans-4c" transform="translate(296.09375 0)"/>
     <use xlink:href="#DejaVuSans-4a" transform="translate(323.875 0)"/>
     <use xlink:href="#DejaVuSans-48" transform="translate(387.359375 0)"/>
     <use xlink:href="#DejaVuSans-51" transform="translate(448.890625 0)"/>
     <use xlink:href="#DejaVuSans-56" transform="translate(512.265625 0)"/>
     <use xlink:href="#DejaVuSans-57" transform="translate(564.359375 0)"/>
     <use xlink:href="#DejaVuSans-44" transform="translate(603.5625 0)"/>
     <use xlink:href="#DejaVuSans-57" transform="translate(664.84375 0)"/>
     <use xlink:href="#DejaVuSans-48" transform="translate(704.046875 0)"/>
     <use xlink:href="#DejaVuSans-56" transform="translate(765.578125 0)"/>
     <use xlink:href="#DejaVuSans-c" transform="translate(817.671875 0)"/>
    </g>
   </g>
   <g id="text_4">
    <!-- $hc\tilde{\nu}$ = 520.7 cm$^{-1}$ -->
    <g style="fill: #8a8a8a" transform="translate(286.464763 190.07944) scale(0.11 -0.11)">
     <defs>
      <path id="DejaVuSans-Oblique-4b" d="M 3566 2113 
L 3156 0 
L 2578 0 
L 2988 2091 
Q 3016 2238 3031 2350 
Q 3047 2463 3047 2528 
Q 3047 2791 2881 2937 
Q 2716 3084 2419 3084 
Q 1956 3084 1617 2771 
Q 1278 2459 1178 1941 
L 800 0 
L 225 0 
L 1172 4863 
L 1747 4863 
L 1375 2950 
Q 1594 3244 1934 3414 
Q 2275 3584 2650 3584 
Q 3113 3584 3367 3334 
Q 3622 3084 3622 2631 
Q 3622 2519 3608 2391 
Q 3594 2263 3566 2113 
z
" transform="scale(0.015625)"/>
      <path id="DejaVuSans-Oblique-46" d="M 3431 3366 
L 3316 2797 
Q 3109 2947 2876 3022 
Q 2644 3097 2394 3097 
Q 2119 3097 1870 3000 
Q 1622 2903 1453 2725 
Q 1184 2453 1037 2087 
Q 891 1722 891 1331 
Q 891 859 1127 628 
Q 1363 397 1844 397 
Q 2081 397 2348 469 
Q 2616 541 2906 684 
L 2797 116 
Q 2547 13 2283 -39 
Q 2019 -91 1741 -91 
Q 1044 -91 669 257 
Q 294 606 294 1253 
Q 294 1797 489 2255 
Q 684 2713 1069 3078 
Q 1331 3328 1684 3456 
Q 2038 3584 2456 3584 
Q 2700 3584 2940 3529 
Q 3181 3475 3431 3366 
z
" transform="scale(0.015625)"/>
      <path id="DejaVuSans-2b4" d="M -1618 4281 
L -1797 4453 
Q -1865 4516 -1916 4545 
Q -1968 4575 -2009 4575 
Q -2128 4575 -2184 4461 
Q -2240 4347 -2247 4091 
L -2637 4091 
Q -2631 4513 -2471 4742 
Q -2312 4972 -2028 4972 
Q -1909 4972 -1809 4928 
Q -1709 4884 -1593 4781 
L -1415 4609 
Q -1347 4547 -1295 4517 
Q -1243 4488 -1203 4488 
Q -1084 4488 -1028 4602 
Q -972 4716 -965 4972 
L -575 4972 
Q -581 4550 -740 4320 
Q -900 4091 -1184 4091 
Q -1303 4091 -1403 4134 
Q -1503 4178 -1618 4281 
z
" transform="scale(0.015625)"/>
      <path id="DejaVuSans-Oblique-351" d="M 959 0 
L 572 3500 
L 1191 3500 
L 1522 563 
Q 1972 950 2391 1488 
Q 2706 1891 2788 2241 
Q 2825 2406 2809 2719 
Q 2794 3091 2544 3500 
L 3125 3500 
L 3125 3500 
Q 3288 3222 3353 2834 
Q 3416 2478 3369 2234 
Q 3250 1622 2719 1075 
Q 2025 363 1572 0 
L 959 0 
z
" transform="scale(0.015625)"/>
      <path id="DejaVuSans-18" d="M 691 4666 
L 3169 4666 
L 3169 4134 
L 1269 4134 
L 1269 2991 
Q 1406 3038 1543 3061 
Q 1681 3084 1819 3084 
Q 2600 3084 3056 2656 
Q 3513 2228 3513 1497 
Q 3513 744 3044 326 
Q 2575 -91 1722 -91 
Q 1428 -91 1123 -41 
Q 819 9 494 109 
L 494 744 
Q 775 591 1075 516 
Q 1375 441 1709 441 
Q 2250 441 2565 725 
Q 2881 1009 2881 1497 
Q 2881 1984 2565 2268 
Q 2250 2553 1709 2553 
Q 1456 2553 1204 2497 
Q 953 2441 691 2322 
L 691 4666 
z
" transform="scale(0.015625)"/>
      <path id="DejaVuSans-15" d="M 1228 531 
L 3431 531 
L 3431 0 
L 469 0 
L 469 531 
Q 828 903 1448 1529 
Q 2069 2156 2228 2338 
Q 2531 2678 2651 2914 
Q 2772 3150 2772 3378 
Q 2772 3750 2511 3984 
Q 2250 4219 1831 4219 
Q 1534 4219 1204 4116 
Q 875 4013 500 3803 
L 500 4441 
Q 881 4594 1212 4672 
Q 1544 4750 1819 4750 
Q 2544 4750 2975 4387 
Q 3406 4025 3406 3419 
Q 3406 3131 3298 2873 
Q 3191 2616 2906 2266 
Q 2828 2175 2409 1742 
Q 1991 1309 1228 531 
z
" transform="scale(0.015625)"/>
      <path id="DejaVuSans-11" d="M 684 794 
L 1344 794 
L 1344 0 
L 684 0 
L 684 794 
z
" transform="scale(0.015625)"/>
      <path id="DejaVuSans-1a" d="M 525 4666 
L 3525 4666 
L 3525 4397 
L 1831 0 
L 1172 0 
L 2766 4134 
L 525 4134 
L 525 4666 
z
" transform="scale(0.015625)"/>
      <path id="DejaVuSans-46" d="M 3122 3366 
L 3122 2828 
Q 2878 2963 2633 3030 
Q 2388 3097 2138 3097 
Q 1578 3097 1268 2742 
Q 959 2388 959 1747 
Q 959 1106 1268 751 
Q 1578 397 2138 397 
Q 2388 397 2633 464 
Q 2878 531 3122 666 
L 3122 134 
Q 2881 22 2623 -34 
Q 2366 -91 2075 -91 
Q 1284 -91 818 406 
Q 353 903 353 1747 
Q 353 2603 823 3093 
Q 1294 3584 2113 3584 
Q 2378 3584 2631 3529 
Q 2884 3475 3122 3366 
z
" transform="scale(0.015625)"/>
      <path id="DejaVuSans-50" d="M 3328 2828 
Q 3544 3216 3844 3400 
Q 4144 3584 4550 3584 
Q 5097 3584 5394 3201 
Q 5691 2819 5691 2113 
L 5691 0 
L 5113 0 
L 5113 2094 
Q 5113 2597 4934 2840 
Q 4756 3084 4391 3084 
Q 3944 3084 3684 2787 
Q 3425 2491 3425 1978 
L 3425 0 
L 2847 0 
L 2847 2094 
Q 2847 2600 2669 2842 
Q 2491 3084 2119 3084 
Q 1678 3084 1418 2786 
Q 1159 2488 1159 1978 
L 1159 0 
L 581 0 
L 581 3500 
L 1159 3500 
L 1159 2956 
Q 1356 3278 1631 3431 
Q 1906 3584 2284 3584 
Q 2666 3584 2933 3390 
Q 3200 3197 3328 2828 
z
" transform="scale(0.015625)"/>
      <path id="DejaVuSans-c9c" d="M 678 2272 
L 4684 2272 
L 4684 1741 
L 678 1741 
L 678 2272 
z
" transform="scale(0.015625)"/>
     </defs>
     <use xlink:href="#DejaVuSans-Oblique-4b" transform="translate(0 0.665625)"/>
     <use xlink:href="#DejaVuSans-Oblique-46" transform="translate(63.378906 0.665625)"/>
     <use xlink:href="#DejaVuSans-2b4" transform="translate(178.527344 3.93125)"/>
     <use xlink:href="#DejaVuSans-Oblique-351" transform="translate(118.359375 0.665625)"/>
     <use xlink:href="#DejaVuSans-3" transform="translate(174.21875 0.665625)"/>
     <use xlink:href="#DejaVuSans-20" transform="translate(206.005859 0.665625)"/>
     <use xlink:href="#DejaVuSans-3" transform="translate(289.794922 0.665625)"/>
     <use xlink:href="#DejaVuSans-18" transform="translate(321.582031 0.665625)"/>
     <use xlink:href="#DejaVuSans-15" transform="translate(385.205078 0.665625)"/>
     <use xlink:href="#DejaVuSans-13" transform="translate(448.828125 0.665625)"/>
     <use xlink:href="#DejaVuSans-11" transform="translate(512.451172 0.665625)"/>
     <use xlink:href="#DejaVuSans-1a" transform="translate(544.238281 0.665625)"/>
     <use xlink:href="#DejaVuSans-3" transform="translate(607.861328 0.665625)"/>
     <use xlink:href="#DejaVuSans-46" transform="translate(639.648438 0.665625)"/>
     <use xlink:href="#DejaVuSans-50" transform="translate(694.628906 0.665625)"/>
     <use xlink:href="#DejaVuSans-c9c" transform="translate(792.998047 41.965625) scale(0.7)"/>
     <use xlink:href="#DejaVuSans-14" transform="translate(851.650391 41.965625) scale(0.7)"/>
    </g>
   </g>
   <g id="text_5">
    <!-- Rayleigh -->
    <g style="fill: #3f8f5f" transform="translate(33.342609 256.459857) scale(0.12 -0.12)">
     <defs>
      <path id="DejaVuSans-35" d="M 2841 2188 
Q 3044 2119 3236 1894 
Q 3428 1669 3622 1275 
L 4263 0 
L 3584 0 
L 2988 1197 
Q 2756 1666 2539 1819 
Q 2322 1972 1947 1972 
L 1259 1972 
L 1259 0 
L 628 0 
L 628 4666 
L 2053 4666 
Q 2853 4666 3247 4331 
Q 3641 3997 3641 3322 
Q 3641 2881 3436 2590 
Q 3231 2300 2841 2188 
z
M 1259 4147 
L 1259 2491 
L 2053 2491 
Q 2509 2491 2742 2702 
Q 2975 2913 2975 3322 
Q 2975 3731 2742 3939 
Q 2509 4147 2053 4147 
L 1259 4147 
z
" transform="scale(0.015625)"/>
      <path id="DejaVuSans-5c" d="M 2059 -325 
Q 1816 -950 1584 -1140 
Q 1353 -1331 966 -1331 
L 506 -1331 
L 506 -850 
L 844 -850 
Q 1081 -850 1212 -737 
Q 1344 -625 1503 -206 
L 1606 56 
L 191 3500 
L 800 3500 
L 1894 763 
L 2988 3500 
L 3597 3500 
L 2059 -325 
z
" transform="scale(0.015625)"/>
      <path id="DejaVuSans-4b" d="M 3513 2113 
L 3513 0 
L 2938 0 
L 2938 2094 
Q 2938 2591 2744 2837 
Q 2550 3084 2163 3084 
Q 1697 3084 1428 2787 
Q 1159 2491 1159 1978 
L 1159 0 
L 581 0 
L 581 4863 
L 1159 4863 
L 1159 2956 
Q 1366 3272 1645 3428 
Q 1925 3584 2291 3584 
Q 2894 3584 3203 3211 
Q 3513 2838 3513 2113 
z
" transform="scale(0.015625)"/>
     </defs>
     <use xlink:href="#DejaVuSans-35"/>
     <use xlink:href="#DejaVuSans-44" transform="translate(67.28125 0)"/>
     <use xlink:href="#DejaVuSans-5c" transform="translate(128.5625 0)"/>
     <use xlink:href="#DejaVuSans-4f" transform="translate(187.75 0)"/>
     <use xlink:href="#DejaVuSans-48" transform="translate(215.53125 0)"/>
     <use xlink:href="#DejaVuSans-4c" transform="translate(277.0625 0)"/>
     <use xlink:href="#DejaVuSans-4a" transform="translate(304.84375 0)"/>
     <use xlink:href="#DejaVuSans-4b" transform="translate(368.328125 0)"/>
    </g>
   </g>
   <g id="text_6">
    <!-- elastic -->
    <g style="fill: #3f8f5f" transform="translate(40.577062 269.35298) scale(0.115 -0.115)">
     <use xlink:href="#DejaVuSans-48"/>
     <use xlink:href="#DejaVuSans-4f" transform="translate(61.53125 0)"/>
     <use xlink:href="#DejaVuSans-44" transform="translate(89.3125 0)"/>
     <use xlink:href="#DejaVuSans-56" transform="translate(150.59375 0)"/>
     <use xlink:href="#DejaVuSans-57" transform="translate(202.6875 0)"/>
     <use xlink:href="#DejaVuSans-4c" transform="translate(241.890625 0)"/>
     <use xlink:href="#DejaVuSans-46" transform="translate(269.671875 0)"/>
    </g>
   </g>
   <g id="text_7">
    <!-- Stokes -->
    <g style="fill: #c00000" transform="translate(125.652371 256.459857) scale(0.12 -0.12)">
     <defs>
      <path id="DejaVuSans-36" d="M 3425 4513 
L 3425 3897 
Q 3066 4069 2747 4153 
Q 2428 4238 2131 4238 
Q 1616 4238 1336 4038 
Q 1056 3838 1056 3469 
Q 1056 3159 1242 3001 
Q 1428 2844 1947 2747 
L 2328 2669 
Q 3034 2534 3370 2195 
Q 3706 1856 3706 1288 
Q 3706 609 3251 259 
Q 2797 -91 1919 -91 
Q 1588 -91 1214 -16 
Q 841 59 441 206 
L 441 856 
Q 825 641 1194 531 
Q 1563 422 1919 422 
Q 2459 422 2753 634 
Q 3047 847 3047 1241 
Q 3047 1584 2836 1778 
Q 2625 1972 2144 2069 
L 1759 2144 
Q 1053 2284 737 2584 
Q 422 2884 422 3419 
Q 422 4038 858 4394 
Q 1294 4750 2059 4750 
Q 2388 4750 2728 4690 
Q 3069 4631 3425 4513 
z
" transform="scale(0.015625)"/>
      <path id="DejaVuSans-4e" d="M 581 4863 
L 1159 4863 
L 1159 1991 
L 2875 3500 
L 3609 3500 
L 1753 1863 
L 3688 0 
L 2938 0 
L 1159 1709 
L 1159 0 
L 581 0 
L 581 4863 
z
" transform="scale(0.015625)"/>
     </defs>
     <use xlink:href="#DejaVuSans-36"/>
     <use xlink:href="#DejaVuSans-57" transform="translate(63.484375 0)"/>
     <use xlink:href="#DejaVuSans-52" transform="translate(102.6875 0)"/>
     <use xlink:href="#DejaVuSans-4e" transform="translate(163.875 0)"/>
     <use xlink:href="#DejaVuSans-48" transform="translate(218.21875 0)"/>
     <use xlink:href="#DejaVuSans-56" transform="translate(279.75 0)"/>
    </g>
   </g>
   <g id="text_8">
    <!-- $-hc\tilde{\nu}$ -->
    <g style="fill: #c00000" transform="translate(130.670496 269.929777) scale(0.115 -0.115)">
     <use xlink:href="#DejaVuSans-c9c" transform="translate(0 0.046875)"/>
     <use xlink:href="#DejaVuSans-Oblique-4b" transform="translate(83.789062 0.046875)"/>
     <use xlink:href="#DejaVuSans-Oblique-46" transform="translate(147.167969 0.046875)"/>
     <use xlink:href="#DejaVuSans-2b4" transform="translate(262.316406 3.3125)"/>
     <use xlink:href="#DejaVuSans-Oblique-351" transform="translate(202.148438 0.046875)"/>
    </g>
   </g>
   <g id="text_9">
    <!-- anti-Stokes -->
    <g style="fill: #3a62b8" transform="translate(198.307445 256.459857) scale(0.12 -0.12)">
     <defs>
      <path id="DejaVuSans-10" d="M 313 2009 
L 1997 2009 
L 1997 1497 
L 313 1497 
L 313 2009 
z
" transform="scale(0.015625)"/>
     </defs>
     <use xlink:href="#DejaVuSans-44"/>
     <use xlink:href="#DejaVuSans-51" transform="translate(61.28125 0)"/>
     <use xlink:href="#DejaVuSans-57" transform="translate(124.65625 0)"/>
     <use xlink:href="#DejaVuSans-4c" transform="translate(163.859375 0)"/>
     <use xlink:href="#DejaVuSans-10" transform="translate(191.640625 0)"/>
     <use xlink:href="#DejaVuSans-36" transform="translate(227.71875 0)"/>
     <use xlink:href="#DejaVuSans-57" transform="translate(291.203125 0)"/>
     <use xlink:href="#DejaVuSans-52" transform="translate(330.40625 0)"/>
     <use xlink:href="#DejaVuSans-4e" transform="translate(391.59375 0)"/>
     <use xlink:href="#DejaVuSans-48" transform="translate(445.9375 0)"/>
     <use xlink:href="#DejaVuSans-56" transform="translate(507.46875 0)"/>
    </g>
   </g>
   <g id="text_10">
    <!-- $+hc\tilde{\nu}$ -->
    <g style="fill: #3a62b8" transform="translate(216.988695 269.929777) scale(0.115 -0.115)">
     <defs>
      <path id="DejaVuSans-e" d="M 2944 4013 
L 2944 2272 
L 4684 2272 
L 4684 1741 
L 2944 1741 
L 2944 0 
L 2419 0 
L 2419 1741 
L 678 1741 
L 678 2272 
L 2419 2272 
L 2419 4013 
L 2944 4013 
z
" transform="scale(0.015625)"/>
     </defs>
     <use xlink:href="#DejaVuSans-e" transform="translate(0 0.046875)"/>
     <use xlink:href="#DejaVuSans-Oblique-4b" transform="translate(83.789062 0.046875)"/>
     <use xlink:href="#DejaVuSans-Oblique-46" transform="translate(147.167969 0.046875)"/>
     <use xlink:href="#DejaVuSans-2b4" transform="translate(262.316406 3.3125)"/>
     <use xlink:href="#DejaVuSans-Oblique-351" transform="translate(202.148438 0.046875)"/>
    </g>
   </g>
   <g id="text_11">
    <!-- up: incident laser photon, the same energy in every path -->
    <g style="fill: #3f8f5f" transform="translate(19.893853 58.374091) scale(0.11 -0.11)">
     <defs>
      <path id="DejaVuSans-53" d="M 1159 525 
L 1159 -1331 
L 581 -1331 
L 581 3500 
L 1159 3500 
L 1159 2969 
Q 1341 3281 1617 3432 
Q 1894 3584 2278 3584 
Q 2916 3584 3314 3078 
Q 3713 2572 3713 1747 
Q 3713 922 3314 415 
Q 2916 -91 2278 -91 
Q 1894 -91 1617 61 
Q 1341 213 1159 525 
z
M 3116 1747 
Q 3116 2381 2855 2742 
Q 2594 3103 2138 3103 
Q 1681 3103 1420 2742 
Q 1159 2381 1159 1747 
Q 1159 1113 1420 752 
Q 1681 391 2138 391 
Q 2594 391 2855 752 
Q 3116 1113 3116 1747 
z
" transform="scale(0.015625)"/>
      <path id="DejaVuSans-1d" d="M 750 794 
L 1409 794 
L 1409 0 
L 750 0 
L 750 794 
z
M 750 3309 
L 1409 3309 
L 1409 2516 
L 750 2516 
L 750 3309 
z
" transform="scale(0.015625)"/>
      <path id="DejaVuSans-47" d="M 2906 2969 
L 2906 4863 
L 3481 4863 
L 3481 0 
L 2906 0 
L 2906 525 
Q 2725 213 2448 61 
Q 2172 -91 1784 -91 
Q 1150 -91 751 415 
Q 353 922 353 1747 
Q 353 2572 751 3078 
Q 1150 3584 1784 3584 
Q 2172 3584 2448 3432 
Q 2725 3281 2906 2969 
z
M 947 1747 
Q 947 1113 1208 752 
Q 1469 391 1925 391 
Q 2381 391 2643 752 
Q 2906 1113 2906 1747 
Q 2906 2381 2643 2742 
Q 2381 3103 1925 3103 
Q 1469 3103 1208 2742 
Q 947 2381 947 1747 
z
" transform="scale(0.015625)"/>
      <path id="DejaVuSans-f" d="M 750 794 
L 1409 794 
L 1409 256 
L 897 -744 
L 494 -744 
L 750 256 
L 750 794 
z
" transform="scale(0.015625)"/>
     </defs>
     <use xlink:href="#DejaVuSans-58"/>
     <use xlink:href="#DejaVuSans-53" transform="translate(63.375 0)"/>
     <use xlink:href="#DejaVuSans-1d" transform="translate(126.859375 0)"/>
     <use xlink:href="#DejaVuSans-3" transform="translate(160.546875 0)"/>
     <use xlink:href="#DejaVuSans-4c" transform="translate(192.328125 0)"/>
     <use xlink:href="#DejaVuSans-51" transform="translate(220.109375 0)"/>
     <use xlink:href="#DejaVuSans-46" transform="translate(283.484375 0)"/>
     <use xlink:href="#DejaVuSans-4c" transform="translate(338.46875 0)"/>
     <use xlink:href="#DejaVuSans-47" transform="translate(366.25 0)"/>
     <use xlink:href="#DejaVuSans-48" transform="translate(429.734375 0)"/>
     <use xlink:href="#DejaVuSans-51" transform="translate(491.265625 0)"/>
     <use xlink:href="#DejaVuSans-57" transform="translate(554.640625 0)"/>
     <use xlink:href="#DejaVuSans-3" transform="translate(593.84375 0)"/>
     <use xlink:href="#DejaVuSans-4f" transform="translate(625.625 0)"/>
     <use xlink:href="#DejaVuSans-44" transform="translate(653.40625 0)"/>
     <use xlink:href="#DejaVuSans-56" transform="translate(714.6875 0)"/>
     <use xlink:href="#DejaVuSans-48" transform="translate(766.78125 0)"/>
     <use xlink:href="#DejaVuSans-55" transform="translate(828.3125 0)"/>
     <use xlink:href="#DejaVuSans-3" transform="translate(869.421875 0)"/>
     <use xlink:href="#DejaVuSans-53" transform="translate(901.203125 0)"/>
     <use xlink:href="#DejaVuSans-4b" transform="translate(964.6875 0)"/>
     <use xlink:href="#DejaVuSans-52" transform="translate(1028.0625 0)"/>
     <use xlink:href="#DejaVuSans-57" transform="translate(1089.25 0)"/>
     <use xlink:href="#DejaVuSans-52" transform="translate(1128.453125 0)"/>
     <use xlink:href="#DejaVuSans-51" transform="translate(1189.640625 0)"/>
     <use xlink:href="#DejaVuSans-f" transform="translate(1253.015625 0)"/>
     <use xlink:href="#DejaVuSans-3" transform="translate(1284.796875 0)"/>
     <use xlink:href="#DejaVuSans-57" transform="translate(1316.578125 0)"/>
     <use xlink:href="#DejaVuSans-4b" transform="translate(1355.78125 0)"/>
     <use xlink:href="#DejaVuSans-48" transform="translate(1419.15625 0)"/>
     <use xlink:href="#DejaVuSans-3" transform="translate(1480.6875 0)"/>
     <use xlink:href="#DejaVuSans-56" transform="translate(1512.46875 0)"/>
     <use xlink:href="#DejaVuSans-44" transform="translate(1564.5625 0)"/>
     <use xlink:href="#DejaVuSans-50" transform="translate(1625.84375 0)"/>
     <use xlink:href="#DejaVuSans-48" transform="translate(1723.25 0)"/>
     <use xlink:href="#DejaVuSans-3" transform="translate(1784.78125 0)"/>
     <use xlink:href="#DejaVuSans-48" transform="translate(1816.5625 0)"/>
     <use xlink:href="#DejaVuSans-51" transform="translate(1878.09375 0)"/>
     <use xlink:href="#DejaVuSans-48" transform="translate(1941.46875 0)"/>
     <use xlink:href="#DejaVuSans-55" transform="translate(2003 0)"/>
     <use xlink:href="#DejaVuSans-4a" transform="translate(2042.359375 0)"/>
     <use xlink:href="#DejaVuSans-5c" transform="translate(2105.84375 0)"/>
     <use xlink:href="#DejaVuSans-3" transform="translate(2165.03125 0)"/>
     <use xlink:href="#DejaVuSans-4c" transform="translate(2196.8125 0)"/>
     <use xlink:href="#DejaVuSans-51" transform="translate(2224.59375 0)"/>
     <use xlink:href="#DejaVuSans-3" transform="translate(2287.96875 0)"/>
     <use xlink:href="#DejaVuSans-48" transform="translate(2319.75 0)"/>
     <use xlink:href="#DejaVuSans-59" transform="translate(2381.28125 0)"/>
     <use xlink:href="#DejaVuSans-48" transform="translate(2440.46875 0)"/>
     <use xlink:href="#DejaVuSans-55" transform="translate(2502 0)"/>
     <use xlink:href="#DejaVuSans-5c" transform="translate(2543.109375 0)"/>
     <use xlink:href="#DejaVuSans-3" transform="translate(2602.296875 0)"/>
     <use xlink:href="#DejaVuSans-53" transform="translate(2634.078125 0)"/>
     <use xlink:href="#DejaVuSans-44" transform="translate(2697.5625 0)"/>
     <use xlink:href="#DejaVuSans-57" transform="translate(2758.84375 0)"/>
     <use xlink:href="#DejaVuSans-4b" transform="translate(2798.046875 0)"/>
    </g>
   </g>
   <g id="text_12">
    <!-- down: scattered photon -->
    <g style="fill: #8a8a8a" transform="translate(19.893853 71.647135) scale(0.11 -0.11)">
     <defs>
      <path id="DejaVuSans-5a" d="M 269 3500 
L 844 3500 
L 1563 769 
L 2278 3500 
L 2956 3500 
L 3675 769 
L 4391 3500 
L 4966 3500 
L 4050 0 
L 3372 0 
L 2619 2869 
L 1863 0 
L 1184 0 
L 269 3500 
z
" transform="scale(0.015625)"/>
     </defs>
     <use xlink:href="#DejaVuSans-47"/>
     <use xlink:href="#DejaVuSans-52" transform="translate(63.484375 0)"/>
     <use xlink:href="#DejaVuSans-5a" transform="translate(124.671875 0)"/>
     <use xlink:href="#DejaVuSans-51" transform="translate(206.453125 0)"/>
     <use xlink:href="#DejaVuSans-1d" transform="translate(269.828125 0)"/>
     <use xlink:href="#DejaVuSans-3" transform="translate(303.515625 0)"/>
     <use xlink:href="#DejaVuSans-56" transform="translate(335.296875 0)"/>
     <use xlink:href="#DejaVuSans-46" transform="translate(387.390625 0)"/>
     <use xlink:href="#DejaVuSans-44" transform="translate(442.375 0)"/>
     <use xlink:href="#DejaVuSans-57" transform="translate(503.65625 0)"/>
     <use xlink:href="#DejaVuSans-57" transform="translate(542.859375 0)"/>
     <use xlink:href="#DejaVuSans-48" transform="translate(582.0625 0)"/>
     <use xlink:href="#DejaVuSans-55" transform="translate(643.59375 0)"/>
     <use xlink:href="#DejaVuSans-48" transform="translate(682.5 0)"/>
     <use xlink:href="#DejaVuSans-47" transform="translate(744.03125 0)"/>
     <use xlink:href="#DejaVuSans-3" transform="translate(807.515625 0)"/>
     <use xlink:href="#DejaVuSans-53" transform="translate(839.296875 0)"/>
     <use xlink:href="#DejaVuSans-4b" transform="translate(902.78125 0)"/>
     <use xlink:href="#DejaVuSans-52" transform="translate(966.15625 0)"/>
     <use xlink:href="#DejaVuSans-57" transform="translate(1027.34375 0)"/>
     <use xlink:href="#DejaVuSans-52" transform="translate(1066.546875 0)"/>
     <use xlink:href="#DejaVuSans-51" transform="translate(1127.734375 0)"/>
    </g>
   </g>
   <g id="text_13">
    <!-- at 300 K the $v=1$ population is 8.2% of the $v=0$ population, -->
    <g style="fill: #8a8a8a" transform="translate(19.893853 295.806246) scale(0.11 -0.11)">
     <defs>
      <path id="DejaVuSans-16" d="M 2597 2516 
Q 3050 2419 3304 2112 
Q 3559 1806 3559 1356 
Q 3559 666 3084 287 
Q 2609 -91 1734 -91 
Q 1441 -91 1130 -33 
Q 819 25 488 141 
L 488 750 
Q 750 597 1062 519 
Q 1375 441 1716 441 
Q 2309 441 2620 675 
Q 2931 909 2931 1356 
Q 2931 1769 2642 2001 
Q 2353 2234 1838 2234 
L 1294 2234 
L 1294 2753 
L 1863 2753 
Q 2328 2753 2575 2939 
Q 2822 3125 2822 3475 
Q 2822 3834 2567 4026 
Q 2313 4219 1838 4219 
Q 1578 4219 1281 4162 
Q 984 4106 628 3988 
L 628 4550 
Q 988 4650 1302 4700 
Q 1616 4750 1894 4750 
Q 2613 4750 3031 4423 
Q 3450 4097 3450 3541 
Q 3450 3153 3228 2886 
Q 3006 2619 2597 2516 
z
" transform="scale(0.015625)"/>
      <path id="DejaVuSans-2e" d="M 628 4666 
L 1259 4666 
L 1259 2694 
L 3353 4666 
L 4166 4666 
L 1850 2491 
L 4331 0 
L 3500 0 
L 1259 2247 
L 1259 0 
L 628 0 
L 628 4666 
z
" transform="scale(0.015625)"/>
      <path id="DejaVuSans-1b" d="M 2034 2216 
Q 1584 2216 1326 1975 
Q 1069 1734 1069 1313 
Q 1069 891 1326 650 
Q 1584 409 2034 409 
Q 2484 409 2743 651 
Q 3003 894 3003 1313 
Q 3003 1734 2745 1975 
Q 2488 2216 2034 2216 
z
M 1403 2484 
Q 997 2584 770 2862 
Q 544 3141 544 3541 
Q 544 4100 942 4425 
Q 1341 4750 2034 4750 
Q 2731 4750 3128 4425 
Q 3525 4100 3525 3541 
Q 3525 3141 3298 2862 
Q 3072 2584 2669 2484 
Q 3125 2378 3379 2068 
Q 3634 1759 3634 1313 
Q 3634 634 3220 271 
Q 2806 -91 2034 -91 
Q 1263 -91 848 271 
Q 434 634 434 1313 
Q 434 1759 690 2068 
Q 947 2378 1403 2484 
z
M 1172 3481 
Q 1172 3119 1398 2916 
Q 1625 2713 2034 2713 
Q 2441 2713 2670 2916 
Q 2900 3119 2900 3481 
Q 2900 3844 2670 4047 
Q 2441 4250 2034 4250 
Q 1625 4250 1398 4047 
Q 1172 3844 1172 3481 
z
" transform="scale(0.015625)"/>
      <path id="DejaVuSans-8" d="M 4653 2053 
Q 4381 2053 4226 1822 
Q 4072 1591 4072 1178 
Q 4072 772 4226 539 
Q 4381 306 4653 306 
Q 4919 306 5073 539 
Q 5228 772 5228 1178 
Q 5228 1588 5073 1820 
Q 4919 2053 4653 2053 
z
M 4653 2450 
Q 5147 2450 5437 2106 
Q 5728 1763 5728 1178 
Q 5728 594 5436 251 
Q 5144 -91 4653 -91 
Q 4153 -91 3862 251 
Q 3572 594 3572 1178 
Q 3572 1766 3864 2108 
Q 4156 2450 4653 2450 
z
M 1428 4353 
Q 1159 4353 1004 4120 
Q 850 3888 850 3481 
Q 850 3069 1003 2837 
Q 1156 2606 1428 2606 
Q 1700 2606 1854 2837 
Q 2009 3069 2009 3481 
Q 2009 3884 1853 4118 
Q 1697 4353 1428 4353 
z
M 4250 4750 
L 4750 4750 
L 1831 -91 
L 1331 -91 
L 4250 4750 
z
M 1428 4750 
Q 1922 4750 2215 4408 
Q 2509 4066 2509 3481 
Q 2509 2891 2217 2550 
Q 1925 2209 1428 2209 
Q 931 2209 642 2551 
Q 353 2894 353 3481 
Q 353 4063 643 4406 
Q 934 4750 1428 4750 
z
" transform="scale(0.015625)"/>
      <path id="DejaVuSans-49" d="M 2375 4863 
L 2375 4384 
L 1825 4384 
Q 1516 4384 1395 4259 
Q 1275 4134 1275 3809 
L 1275 3500 
L 2222 3500 
L 2222 3053 
L 1275 3053 
L 1275 0 
L 697 0 
L 697 3053 
L 147 3053 
L 147 3500 
L 697 3500 
L 697 3744 
Q 697 4328 969 4595 
Q 1241 4863 1831 4863 
L 2375 4863 
z
" transform="scale(0.015625)"/>
     </defs>
     <use xlink:href="#DejaVuSans-44" transform="translate(0 0.015625)"/>
     <use xlink:href="#DejaVuSans-57" transform="translate(61.279297 0.015625)"/>
     <use xlink:href="#DejaVuSans-3" transform="translate(100.488281 0.015625)"/>
     <use xlink:href="#DejaVuSans-16" transform="translate(132.275391 0.015625)"/>
     <use xlink:href="#DejaVuSans-13" transform="translate(195.898438 0.015625)"/>
     <use xlink:href="#DejaVuSans-13" transform="translate(259.521484 0.015625)"/>
     <use xlink:href="#DejaVuSans-3" transform="translate(323.144531 0.015625)"/>
     <use xlink:href="#DejaVuSans-2e" transform="translate(354.931641 0.015625)"/>
     <use xlink:href="#DejaVuSans-3" transform="translate(420.507812 0.015625)"/>
     <use xlink:href="#DejaVuSans-57" transform="translate(452.294922 0.015625)"/>
     <use xlink:href="#DejaVuSans-4b" transform="translate(491.503906 0.015625)"/>
     <use xlink:href="#DejaVuSans-48" transform="translate(554.882812 0.015625)"/>
     <use xlink:href="#DejaVuSans-3" transform="translate(616.40625 0.015625)"/>
     <use xlink:href="#DejaVuSans-Oblique-59" transform="translate(648.193359 0.015625)"/>
     <use xlink:href="#DejaVuSans-20" transform="translate(726.855469 0.015625)"/>
     <use xlink:href="#DejaVuSans-14" transform="translate(830.126953 0.015625)"/>
     <use xlink:href="#DejaVuSans-3" transform="translate(893.75 0.015625)"/>
     <use xlink:href="#DejaVuSans-53" transform="translate(925.537109 0.015625)"/>
     <use xlink:href="#DejaVuSans-52" transform="translate(989.013672 0.015625)"/>
     <use xlink:href="#DejaVuSans-53" transform="translate(1050.195312 0.015625)"/>
     <use xlink:href="#DejaVuSans-58" transform="translate(1113.671875 0.015625)"/>
     <use xlink:href="#DejaVuSans-4f" transform="translate(1177.050781 0.015625)"/>
     <use xlink:href="#DejaVuSans-44" transform="translate(1204.833984 0.015625)"/>
     <use xlink:href="#DejaVuSans-57" transform="translate(1266.113281 0.015625)"/>
     <use xlink:href="#DejaVuSans-4c" transform="translate(1305.322266 0.015625)"/>
     <use xlink:href="#DejaVuSans-52" transform="translate(1333.105469 0.015625)"/>
     <use xlink:href="#DejaVuSans-51" transform="translate(1394.287109 0.015625)"/>
     <use xlink:href="#DejaVuSans-3" transform="translate(1457.666016 0.015625)"/>
     <use xlink:href="#DejaVuSans-4c" transform="translate(1489.453125 0.015625)"/>
     <use xlink:href="#DejaVuSans-56" transform="translate(1517.236328 0.015625)"/>
     <use xlink:href="#DejaVuSans-3" transform="translate(1569.335938 0.015625)"/>
     <use xlink:href="#DejaVuSans-1b" transform="translate(1601.123047 0.015625)"/>
     <use xlink:href="#DejaVuSans-11" transform="translate(1664.746094 0.015625)"/>
     <use xlink:href="#DejaVuSans-15" transform="translate(1696.533203 0.015625)"/>
     <use xlink:href="#DejaVuSans-8" transform="translate(1760.15625 0.015625)"/>
     <use xlink:href="#DejaVuSans-3" transform="translate(1855.175781 0.015625)"/>
     <use xlink:href="#DejaVuSans-52" transform="translate(1886.962891 0.015625)"/>
     <use xlink:href="#DejaVuSans-49" transform="translate(1948.144531 0.015625)"/>
     <use xlink:href="#DejaVuSans-3" transform="translate(1983.349609 0.015625)"/>
     <use xlink:href="#DejaVuSans-57" transform="translate(2015.136719 0.015625)"/>
     <use xlink:href="#DejaVuSans-4b" transform="translate(2054.345703 0.015625)"/>
     <use xlink:href="#DejaVuSans-48" transform="translate(2117.724609 0.015625)"/>
     <use xlink:href="#DejaVuSans-3" transform="translate(2179.248047 0.015625)"/>
     <use xlink:href="#DejaVuSans-Oblique-59" transform="translate(2211.035156 0.015625)"/>
     <use xlink:href="#DejaVuSans-20" transform="translate(2289.697266 0.015625)"/>
     <use xlink:href="#DejaVuSans-13" transform="translate(2392.96875 0.015625)"/>
     <use xlink:href="#DejaVuSans-3" transform="translate(2456.591797 0.015625)"/>
     <use xlink:href="#DejaVuSans-53" transform="translate(2488.378906 0.015625)"/>
     <use xlink:href="#DejaVuSans-52" transform="translate(2551.855469 0.015625)"/>
     <use xlink:href="#DejaVuSans-53" transform="translate(2613.037109 0.015625)"/>
     <use xlink:href="#DejaVuSans-58" transform="translate(2676.513672 0.015625)"/>
     <use xlink:href="#DejaVuSans-4f" transform="translate(2739.892578 0.015625)"/>
     <use xlink:href="#DejaVuSans-44" transform="translate(2767.675781 0.015625)"/>
     <use xlink:href="#DejaVuSans-57" transform="translate(2828.955078 0.015625)"/>
     <use xlink:href="#DejaVuSans-4c" transform="translate(2868.164062 0.015625)"/>
     <use xlink:href="#DejaVuSans-52" transform="translate(2895.947266 0.015625)"/>
     <use xlink:href="#DejaVuSans-51" transform="translate(2957.128906 0.015625)"/>
     <use xlink:href="#DejaVuSans-f" transform="translate(3020.507812 0.015625)"/>
    </g>
    <!-- which is why anti-Stokes is the weak line -->
    <g style="fill: #8a8a8a" transform="translate(19.893853 309.009254) scale(0.11 -0.11)">
     <use xlink:href="#DejaVuSans-5a"/>
     <use xlink:href="#DejaVuSans-4b" transform="translate(81.78125 0)"/>
     <use xlink:href="#DejaVuSans-4c" transform="translate(145.15625 0)"/>
     <use xlink:href="#DejaVuSans-46" transform="translate(172.9375 0)"/>
     <use xlink:href="#DejaVuSans-4b" transform="translate(227.921875 0)"/>
     <use xlink:href="#DejaVuSans-3" transform="translate(291.296875 0)"/>
     <use xlink:href="#DejaVuSans-4c" transform="translate(323.078125 0)"/>
     <use xlink:href="#DejaVuSans-56" transform="translate(350.859375 0)"/>
     <use xlink:href="#DejaVuSans-3" transform="translate(402.953125 0)"/>
     <use xlink:href="#DejaVuSans-5a" transform="translate(434.734375 0)"/>
     <use xlink:href="#DejaVuSans-4b" transform="translate(516.515625 0)"/>
     <use xlink:href="#DejaVuSans-5c" transform="translate(579.890625 0)"/>
     <use xlink:href="#DejaVuSans-3" transform="translate(639.078125 0)"/>
     <use xlink:href="#DejaVuSans-44" transform="translate(670.859375 0)"/>
     <use xlink:href="#DejaVuSans-51" transform="translate(732.140625 0)"/>
     <use xlink:href="#DejaVuSans-57" transform="translate(795.515625 0)"/>
     <use xlink:href="#DejaVuSans-4c" transform="translate(834.71875 0)"/>
     <use xlink:href="#DejaVuSans-10" transform="translate(862.5 0)"/>
     <use xlink:href="#DejaVuSans-36" transform="translate(898.578125 0)"/>
     <use xlink:href="#DejaVuSans-57" transform="translate(962.0625 0)"/>
     <use xlink:href="#DejaVuSans-52" transform="translate(1001.265625 0)"/>
     <use xlink:href="#DejaVuSans-4e" transform="translate(1062.453125 0)"/>
     <use xlink:href="#DejaVuSans-48" transform="translate(1116.796875 0)"/>
     <use xlink:href="#DejaVuSans-56" transform="translate(1178.328125 0)"/>
     <use xlink:href="#DejaVuSans-3" transform="translate(1230.421875 0)"/>
     <use xlink:href="#DejaVuSans-4c" transform="translate(1262.203125 0)"/>
     <use xlink:href="#DejaVuSans-56" transform="translate(1289.984375 0)"/>
     <use xlink:href="#DejaVuSans-3" transform="translate(1342.078125 0)"/>
     <use xlink:href="#DejaVuSans-57" transform="translate(1373.859375 0)"/>
     <use xlink:href="#DejaVuSans-4b" transform="translate(1413.0625 0)"/>
     <use xlink:href="#DejaVuSans-48" transform="translate(1476.4375 0)"/>
     <use xlink:href="#DejaVuSans-3" transform="translate(1537.96875 0)"/>
     <use xlink:href="#DejaVuSans-5a" transform="translate(1569.75 0)"/>
     <use xlink:href="#DejaVuSans-48" transform="translate(1651.53125 0)"/>
     <use xlink:href="#DejaVuSans-44" transform="translate(1713.0625 0)"/>
     <use xlink:href="#DejaVuSans-4e" transform="translate(1774.34375 0)"/>
     <use xlink:href="#DejaVuSans-3" transform="translate(1832.25 0)"/>
     <use xlink:href="#DejaVuSans-4f" transform="translate(1864.03125 0)"/>
     <use xlink:href="#DejaVuSans-4c" transform="translate(1891.8125 0)"/>
     <use xlink:href="#DejaVuSans-51" transform="translate(1919.59375 0)"/>
     <use xlink:href="#DejaVuSans-48" transform="translate(1982.96875 0)"/>
    </g>
   </g>
   <g id="text_14">
    <!-- energy levels and the three scattering paths -->
    <g style="fill: #8a8a8a" transform="translate(60.812579 38.706592) scale(0.125 -0.125)">
     <use xlink:href="#DejaVuSans-48"/>
     <use xlink:href="#DejaVuSans-51" transform="translate(61.53125 0)"/>
     <use xlink:href="#DejaVuSans-48" transform="translate(124.90625 0)"/>
     <use xlink:href="#DejaVuSans-55" transform="translate(186.4375 0)"/>
     <use xlink:href="#DejaVuSans-4a" transform="translate(225.796875 0)"/>
     <use xlink:href="#DejaVuSans-5c" transform="translate(289.28125 0)"/>
     <use xlink:href="#DejaVuSans-3" transform="translate(348.46875 0)"/>
     <use xlink:href="#DejaVuSans-4f" transform="translate(380.25 0)"/>
     <use xlink:href="#DejaVuSans-48" transform="translate(408.03125 0)"/>
     <use xlink:href="#DejaVuSans-59" transform="translate(469.5625 0)"/>
     <use xlink:href="#DejaVuSans-48" transform="translate(528.75 0)"/>
     <use xlink:href="#DejaVuSans-4f" transform="translate(590.28125 0)"/>
     <use xlink:href="#DejaVuSans-56" transform="translate(618.0625 0)"/>
     <use xlink:href="#DejaVuSans-3" transform="translate(670.15625 0)"/>
     <use xlink:href="#DejaVuSans-44" transform="translate(701.9375 0)"/>
     <use xlink:href="#DejaVuSans-51" transform="translate(763.21875 0)"/>
     <use xlink:href="#DejaVuSans-47" transform="translate(826.59375 0)"/>
     <use xlink:href="#DejaVuSans-3" transform="translate(890.078125 0)"/>
     <use xlink:href="#DejaVuSans-57" transform="translate(921.859375 0)"/>
     <use xlink:href="#DejaVuSans-4b" transform="translate(961.0625 0)"/>
     <use xlink:href="#DejaVuSans-48" transform="translate(1024.4375 0)"/>
     <use xlink:href="#DejaVuSans-3" transform="translate(1085.96875 0)"/>
     <use xlink:href="#DejaVuSans-57" transform="translate(1117.75 0)"/>
     <use xlink:href="#DejaVuSans-4b" transform="translate(1156.953125 0)"/>
     <use xlink:href="#DejaVuSans-55" transform="translate(1220.328125 0)"/>
     <use xlink:href="#DejaVuSans-48" transform="translate(1259.234375 0)"/>
     <use xlink:href="#DejaVuSans-48" transform="translate(1320.765625 0)"/>
     <use xlink:href="#DejaVuSans-3" transform="translate(1382.296875 0)"/>
     <use xlink:href="#DejaVuSans-56" transform="translate(1414.078125 0)"/>
     <use xlink:href="#DejaVuSans-46" transform="translate(1466.171875 0)"/>
     <use xlink:href="#DejaVuSans-44" transform="translate(1521.15625 0)"/>
     <use xlink:href="#DejaVuSans-57" transform="translate(1582.4375 0)"/>
     <use xlink:href="#DejaVuSans-57" transform="translate(1621.640625 0)"/>
     <use xlink:href="#DejaVuSans-48" transform="translate(1660.84375 0)"/>
     <use xlink:href="#DejaVuSans-55" transform="translate(1722.375 0)"/>
     <use xlink:href="#DejaVuSans-4c" transform="translate(1763.484375 0)"/>
     <use xlink:href="#DejaVuSans-51" transform="translate(1791.265625 0)"/>
     <use xlink:href="#DejaVuSans-4a" transform="translate(1854.640625 0)"/>
     <use xlink:href="#DejaVuSans-3" transform="translate(1918.125 0)"/>
     <use xlink:href="#DejaVuSans-53" transform="translate(1949.90625 0)"/>
     <use xlink:href="#DejaVuSans-44" transform="translate(2013.390625 0)"/>
     <use xlink:href="#DejaVuSans-57" transform="translate(2074.671875 0)"/>
     <use xlink:href="#DejaVuSans-4b" transform="translate(2113.875 0)"/>
     <use xlink:href="#DejaVuSans-56" transform="translate(2177.25 0)"/>
    </g>
   </g>
  </g>
  <g id="axes_2">
   <g id="patch_9">
    <path d="M 480.925289 313.706953 
L 816.484529 313.706953 
L 816.484529 44.706592 
L 480.925289 44.706592 
L 480.925289 313.706953 
z
" style="fill: none"/>
   </g>
   <g id="matplotlib.axis_1">
    <g id="xtick_1">
     <g id="line2d_5">
      <path d="M 519.643662 313.706953 
L 519.643662 44.706592 
" clip-path="url(#p48ef95b6e0)" style="fill: none; stroke: #888888; stroke-opacity: 0.22; stroke-width: 0.6; stroke-linecap: square"/>
     </g>
     <g id="line2d_6">
      <defs>
       <path id="m1989299e56" d="M 0 0 
L 0 3.5 
" style="stroke: #888888; stroke-width: 0.8"/>
      </defs>
      <g>
       <use xlink:href="#m1989299e56" x="519.643662" y="313.706953" style="fill: #888888; stroke: #888888; stroke-width: 0.8"/>
      </g>
     </g>
     <g id="text_15">
      <!-- −600 -->
      <g style="fill: #8a8a8a" transform="translate(501.789991 330.583906) scale(0.13 -0.13)">
       <defs>
        <path id="DejaVuSans-19" d="M 2113 2584 
Q 1688 2584 1439 2293 
Q 1191 2003 1191 1497 
Q 1191 994 1439 701 
Q 1688 409 2113 409 
Q 2538 409 2786 701 
Q 3034 994 3034 1497 
Q 3034 2003 2786 2293 
Q 2538 2584 2113 2584 
z
M 3366 4563 
L 3366 3988 
Q 3128 4100 2886 4159 
Q 2644 4219 2406 4219 
Q 1781 4219 1451 3797 
Q 1122 3375 1075 2522 
Q 1259 2794 1537 2939 
Q 1816 3084 2150 3084 
Q 2853 3084 3261 2657 
Q 3669 2231 3669 1497 
Q 3669 778 3244 343 
Q 2819 -91 2113 -91 
Q 1303 -91 875 529 
Q 447 1150 447 2328 
Q 447 3434 972 4092 
Q 1497 4750 2381 4750 
Q 2619 4750 2861 4703 
Q 3103 4656 3366 4563 
z
" transform="scale(0.015625)"/>
       </defs>
       <use xlink:href="#DejaVuSans-c9c"/>
       <use xlink:href="#DejaVuSans-19" transform="translate(83.796875 0)"/>
       <use xlink:href="#DejaVuSans-13" transform="translate(147.421875 0)"/>
       <use xlink:href="#DejaVuSans-13" transform="translate(211.046875 0)"/>
      </g>
     </g>
    </g>
    <g id="xtick_2">
     <g id="line2d_7">
      <path d="M 562.664078 313.706953 
L 562.664078 44.706592 
" clip-path="url(#p48ef95b6e0)" style="fill: none; stroke: #888888; stroke-opacity: 0.22; stroke-width: 0.6; stroke-linecap: square"/>
     </g>
     <g id="line2d_8">
      <g>
       <use xlink:href="#m1989299e56" x="562.664078" y="313.706953" style="fill: #888888; stroke: #888888; stroke-width: 0.8"/>
      </g>
     </g>
     <g id="text_16">
      <!-- −400 -->
      <g style="fill: #8a8a8a" transform="translate(544.810406 330.583906) scale(0.13 -0.13)">
       <defs>
        <path id="DejaVuSans-17" d="M 2419 4116 
L 825 1625 
L 2419 1625 
L 2419 4116 
z
M 2253 4666 
L 3047 4666 
L 3047 1625 
L 3713 1625 
L 3713 1100 
L 3047 1100 
L 3047 0 
L 2419 0 
L 2419 1100 
L 313 1100 
L 313 1709 
L 2253 4666 
z
" transform="scale(0.015625)"/>
       </defs>
       <use xlink:href="#DejaVuSans-c9c"/>
       <use xlink:href="#DejaVuSans-17" transform="translate(83.796875 0)"/>
       <use xlink:href="#DejaVuSans-13" transform="translate(147.421875 0)"/>
       <use xlink:href="#DejaVuSans-13" transform="translate(211.046875 0)"/>
      </g>
     </g>
    </g>
    <g id="xtick_3">
     <g id="line2d_9">
      <path d="M 605.684493 313.706953 
L 605.684493 44.706592 
" clip-path="url(#p48ef95b6e0)" style="fill: none; stroke: #888888; stroke-opacity: 0.22; stroke-width: 0.6; stroke-linecap: square"/>
     </g>
     <g id="line2d_10">
      <g>
       <use xlink:href="#m1989299e56" x="605.684493" y="313.706953" style="fill: #888888; stroke: #888888; stroke-width: 0.8"/>
      </g>
     </g>
     <g id="text_17">
      <!-- −200 -->
      <g style="fill: #8a8a8a" transform="translate(587.830822 330.583906) scale(0.13 -0.13)">
       <use xlink:href="#DejaVuSans-c9c"/>
       <use xlink:href="#DejaVuSans-15" transform="translate(83.796875 0)"/>
       <use xlink:href="#DejaVuSans-13" transform="translate(147.421875 0)"/>
       <use xlink:href="#DejaVuSans-13" transform="translate(211.046875 0)"/>
      </g>
     </g>
    </g>
    <g id="xtick_4">
     <g id="line2d_11">
      <path d="M 648.704909 313.706953 
L 648.704909 44.706592 
" clip-path="url(#p48ef95b6e0)" style="fill: none; stroke: #888888; stroke-opacity: 0.22; stroke-width: 0.6; stroke-linecap: square"/>
     </g>
     <g id="line2d_12">
      <g>
       <use xlink:href="#m1989299e56" x="648.704909" y="313.706953" style="fill: #888888; stroke: #888888; stroke-width: 0.8"/>
      </g>
     </g>
     <g id="text_18">
      <!-- 0 -->
      <g style="fill: #8a8a8a" transform="translate(644.569284 330.583906) scale(0.13 -0.13)">
       <use xlink:href="#DejaVuSans-13"/>
      </g>
     </g>
    </g>
    <g id="xtick_5">
     <g id="line2d_13">
      <path d="M 691.725324 313.706953 
L 691.725324 44.706592 
" clip-path="url(#p48ef95b6e0)" style="fill: none; stroke: #888888; stroke-opacity: 0.22; stroke-width: 0.6; stroke-linecap: square"/>
     </g>
     <g id="line2d_14">
      <g>
       <use xlink:href="#m1989299e56" x="691.725324" y="313.706953" style="fill: #888888; stroke: #888888; stroke-width: 0.8"/>
      </g>
     </g>
     <g id="text_19">
      <!-- 200 -->
      <g style="fill: #8a8a8a" transform="translate(679.318449 330.583906) scale(0.13 -0.13)">
       <use xlink:href="#DejaVuSans-15"/>
       <use xlink:href="#DejaVuSans-13" transform="translate(63.625 0)"/>
       <use xlink:href="#DejaVuSans-13" transform="translate(127.25 0)"/>
      </g>
     </g>
    </g>
    <g id="xtick_6">
     <g id="line2d_15">
      <path d="M 734.74574 313.706953 
L 734.74574 44.706592 
" clip-path="url(#p48ef95b6e0)" style="fill: none; stroke: #888888; stroke-opacity: 0.22; stroke-width: 0.6; stroke-linecap: square"/>
     </g>
     <g id="line2d_16">
      <g>
       <use xlink:href="#m1989299e56" x="734.74574" y="313.706953" style="fill: #888888; stroke: #888888; stroke-width: 0.8"/>
      </g>
     </g>
     <g id="text_20">
      <!-- 400 -->
      <g style="fill: #8a8a8a" transform="translate(722.338865 330.583906) scale(0.13 -0.13)">
       <use xlink:href="#DejaVuSans-17"/>
       <use xlink:href="#DejaVuSans-13" transform="translate(63.625 0)"/>
       <use xlink:href="#DejaVuSans-13" transform="translate(127.25 0)"/>
      </g>
     </g>
    </g>
    <g id="xtick_7">
     <g id="line2d_17">
      <path d="M 777.766155 313.706953 
L 777.766155 44.706592 
" clip-path="url(#p48ef95b6e0)" style="fill: none; stroke: #888888; stroke-opacity: 0.22; stroke-width: 0.6; stroke-linecap: square"/>
     </g>
     <g id="line2d_18">
      <g>
       <use xlink:href="#m1989299e56" x="777.766155" y="313.706953" style="fill: #888888; stroke: #888888; stroke-width: 0.8"/>
      </g>
     </g>
     <g id="text_21">
      <!-- 600 -->
      <g style="fill: #8a8a8a" transform="translate(765.35928 330.583906) scale(0.13 -0.13)">
       <use xlink:href="#DejaVuSans-19"/>
       <use xlink:href="#DejaVuSans-13" transform="translate(63.625 0)"/>
       <use xlink:href="#DejaVuSans-13" transform="translate(127.25 0)"/>
      </g>
     </g>
    </g>
    <g id="text_22">
     <!-- Raman shift  $\tilde{\nu}$ (cm$^{-1}$) -->
     <g style="fill: #8a8a8a" transform="translate(578.049909 349.796953) scale(0.13 -0.13)">
      <use xlink:href="#DejaVuSans-35" transform="translate(0 0.665625)"/>
      <use xlink:href="#DejaVuSans-44" transform="translate(67.482422 0.665625)"/>
      <use xlink:href="#DejaVuSans-50" transform="translate(128.761719 0.665625)"/>
      <use xlink:href="#DejaVuSans-44" transform="translate(226.173828 0.665625)"/>
      <use xlink:href="#DejaVuSans-51" transform="translate(287.453125 0.665625)"/>
      <use xlink:href="#DejaVuSans-3" transform="translate(350.832031 0.665625)"/>
      <use xlink:href="#DejaVuSans-56" transform="translate(382.619141 0.665625)"/>
      <use xlink:href="#DejaVuSans-4b" transform="translate(434.71875 0.665625)"/>
      <use xlink:href="#DejaVuSans-4c" transform="translate(498.097656 0.665625)"/>
      <use xlink:href="#DejaVuSans-49" transform="translate(525.880859 0.665625)"/>
      <use xlink:href="#DejaVuSans-57" transform="translate(559.085938 0.665625)"/>
      <use xlink:href="#DejaVuSans-3" transform="translate(598.294922 0.665625)"/>
      <use xlink:href="#DejaVuSans-3" transform="translate(630.082031 0.665625)"/>
      <use xlink:href="#DejaVuSans-2b4" transform="translate(722.037109 3.93125)"/>
      <use xlink:href="#DejaVuSans-Oblique-351" transform="translate(661.869141 0.665625)"/>
      <use xlink:href="#DejaVuSans-3" transform="translate(717.728516 0.665625)"/>
      <use xlink:href="#DejaVuSans-b" transform="translate(749.515625 0.665625)"/>
      <use xlink:href="#DejaVuSans-46" transform="translate(788.529297 0.665625)"/>
      <use xlink:href="#DejaVuSans-50" transform="translate(843.509766 0.665625)"/>
      <use xlink:href="#DejaVuSans-c9c" transform="translate(941.878906 41.965625) scale(0.7)"/>
      <use xlink:href="#DejaVuSans-14" transform="translate(1000.53125 41.965625) scale(0.7)"/>
      <use xlink:href="#DejaVuSans-c" transform="translate(1047.801758 0.665625)"/>
     </g>
    </g>
   </g>
   <g id="matplotlib.axis_2">
    <g id="ytick_1">
     <g id="line2d_19">
      <path d="M 480.925289 313.706953 
L 816.484529 313.706953 
" clip-path="url(#p48ef95b6e0)" style="fill: none; stroke: #888888; stroke-opacity: 0.22; stroke-width: 0.6; stroke-linecap: square"/>
     </g>
     <g id="line2d_20">
      <defs>
       <path id="mc876899edf" d="M 0 0 
L -3.5 0 
" style="stroke: #888888; stroke-width: 0.8"/>
      </defs>
      <g>
       <use xlink:href="#mc876899edf" x="480.925289" y="313.706953" style="fill: #888888; stroke: #888888; stroke-width: 0.8"/>
      </g>
     </g>
     <g id="text_23">
      <!-- 0.00 -->
      <g style="fill: #8a8a8a" transform="translate(444.979976 318.64543) scale(0.13 -0.13)">
       <use xlink:href="#DejaVuSans-13"/>
       <use xlink:href="#DejaVuSans-11" transform="translate(63.625 0)"/>
       <use xlink:href="#DejaVuSans-13" transform="translate(95.40625 0)"/>
       <use xlink:href="#DejaVuSans-13" transform="translate(159.03125 0)"/>
      </g>
     </g>
    </g>
    <g id="ytick_2">
     <g id="line2d_21">
      <path d="M 480.925289 267.32758 
L 816.484529 267.32758 
" clip-path="url(#p48ef95b6e0)" style="fill: none; stroke: #888888; stroke-opacity: 0.22; stroke-width: 0.6; stroke-linecap: square"/>
     </g>
     <g id="line2d_22">
      <g>
       <use xlink:href="#mc876899edf" x="480.925289" y="267.32758" style="fill: #888888; stroke: #888888; stroke-width: 0.8"/>
      </g>
     </g>
     <g id="text_24">
      <!-- 0.25 -->
      <g style="fill: #8a8a8a" transform="translate(444.979976 272.266057) scale(0.13 -0.13)">
       <use xlink:href="#DejaVuSans-13"/>
       <use xlink:href="#DejaVuSans-11" transform="translate(63.625 0)"/>
       <use xlink:href="#DejaVuSans-15" transform="translate(95.40625 0)"/>
       <use xlink:href="#DejaVuSans-18" transform="translate(159.03125 0)"/>
      </g>
     </g>
    </g>
    <g id="ytick_3">
     <g id="line2d_23">
      <path d="M 480.925289 220.948208 
L 816.484529 220.948208 
" clip-path="url(#p48ef95b6e0)" style="fill: none; stroke: #888888; stroke-opacity: 0.22; stroke-width: 0.6; stroke-linecap: square"/>
     </g>
     <g id="line2d_24">
      <g>
       <use xlink:href="#mc876899edf" x="480.925289" y="220.948208" style="fill: #888888; stroke: #888888; stroke-width: 0.8"/>
      </g>
     </g>
     <g id="text_25">
      <!-- 0.50 -->
      <g style="fill: #8a8a8a" transform="translate(444.979976 225.886684) scale(0.13 -0.13)">
       <use xlink:href="#DejaVuSans-13"/>
       <use xlink:href="#DejaVuSans-11" transform="translate(63.625 0)"/>
       <use xlink:href="#DejaVuSans-18" transform="translate(95.40625 0)"/>
       <use xlink:href="#DejaVuSans-13" transform="translate(159.03125 0)"/>
      </g>
     </g>
    </g>
    <g id="ytick_4">
     <g id="line2d_25">
      <path d="M 480.925289 174.568835 
L 816.484529 174.568835 
" clip-path="url(#p48ef95b6e0)" style="fill: none; stroke: #888888; stroke-opacity: 0.22; stroke-width: 0.6; stroke-linecap: square"/>
     </g>
     <g id="line2d_26">
      <g>
       <use xlink:href="#mc876899edf" x="480.925289" y="174.568835" style="fill: #888888; stroke: #888888; stroke-width: 0.8"/>
      </g>
     </g>
     <g id="text_26">
      <!-- 0.75 -->
      <g style="fill: #8a8a8a" transform="translate(444.979976 179.507312) scale(0.13 -0.13)">
       <use xlink:href="#DejaVuSans-13"/>
       <use xlink:href="#DejaVuSans-11" transform="translate(63.625 0)"/>
       <use xlink:href="#DejaVuSans-1a" transform="translate(95.40625 0)"/>
       <use xlink:href="#DejaVuSans-18" transform="translate(159.03125 0)"/>
      </g>
     </g>
    </g>
    <g id="ytick_5">
     <g id="line2d_27">
      <path d="M 480.925289 128.189463 
L 816.484529 128.189463 
" clip-path="url(#p48ef95b6e0)" style="fill: none; stroke: #888888; stroke-opacity: 0.22; stroke-width: 0.6; stroke-linecap: square"/>
     </g>
     <g id="line2d_28">
      <g>
       <use xlink:href="#mc876899edf" x="480.925289" y="128.189463" style="fill: #888888; stroke: #888888; stroke-width: 0.8"/>
      </g>
     </g>
     <g id="text_27">
      <!-- 1.00 -->
      <g style="fill: #8a8a8a" transform="translate(444.979976 133.127939) scale(0.13 -0.13)">
       <use xlink:href="#DejaVuSans-14"/>
       <use xlink:href="#DejaVuSans-11" transform="translate(63.625 0)"/>
       <use xlink:href="#DejaVuSans-13" transform="translate(95.40625 0)"/>
       <use xlink:href="#DejaVuSans-13" transform="translate(159.03125 0)"/>
      </g>
     </g>
    </g>
    <g id="text_28">
     <!-- scattered intensity (Stokes peak = 1) -->
     <g style="fill: #8a8a8a" transform="translate(437.856929 300.506929) rotate(-90) scale(0.13 -0.13)">
      <use xlink:href="#DejaVuSans-56"/>
      <use xlink:href="#DejaVuSans-46" transform="translate(52.09375 0)"/>
      <use xlink:href="#DejaVuSans-44" transform="translate(107.078125 0)"/>
      <use xlink:href="#DejaVuSans-57" transform="translate(168.359375 0)"/>
      <use xlink:href="#DejaVuSans-57" transform="translate(207.5625 0)"/>
      <use xlink:href="#DejaVuSans-48" transform="translate(246.765625 0)"/>
      <use xlink:href="#DejaVuSans-55" transform="translate(308.296875 0)"/>
      <use xlink:href="#DejaVuSans-48" transform="translate(347.203125 0)"/>
      <use xlink:href="#DejaVuSans-47" transform="translate(408.734375 0)"/>
      <use xlink:href="#DejaVuSans-3" transform="translate(472.21875 0)"/>
      <use xlink:href="#DejaVuSans-4c" transform="translate(504 0)"/>
      <use xlink:href="#DejaVuSans-51" transform="translate(531.78125 0)"/>
      <use xlink:href="#DejaVuSans-57" transform="translate(595.15625 0)"/>
      <use xlink:href="#DejaVuSans-48" transform="translate(634.359375 0)"/>
      <use xlink:href="#DejaVuSans-51" transform="translate(695.890625 0)"/>
      <use xlink:href="#DejaVuSans-56" transform="translate(759.265625 0)"/>
      <use xlink:href="#DejaVuSans-4c" transform="translate(811.359375 0)"/>
      <use xlink:href="#DejaVuSans-57" transform="translate(839.140625 0)"/>
      <use xlink:href="#DejaVuSans-5c" transform="translate(878.34375 0)"/>
      <use xlink:href="#DejaVuSans-3" transform="translate(937.53125 0)"/>
      <use xlink:href="#DejaVuSans-b" transform="translate(969.3125 0)"/>
      <use xlink:href="#DejaVuSans-36" transform="translate(1008.328125 0)"/>
      <use xlink:href="#DejaVuSans-57" transform="translate(1071.8125 0)"/>
      <use xlink:href="#DejaVuSans-52" transform="translate(1111.015625 0)"/>
      <use xlink:href="#DejaVuSans-4e" transform="translate(1172.203125 0)"/>
      <use xlink:href="#DejaVuSans-48" transform="translate(1226.546875 0)"/>
      <use xlink:href="#DejaVuSans-56" transform="translate(1288.078125 0)"/>
      <use xlink:href="#DejaVuSans-3" transform="translate(1340.171875 0)"/>
      <use xlink:href="#DejaVuSans-53" transform="translate(1371.953125 0)"/>
      <use xlink:href="#DejaVuSans-48" transform="translate(1435.4375 0)"/>
      <use xlink:href="#DejaVuSans-44" transform="translate(1496.96875 0)"/>
      <use xlink:href="#DejaVuSans-4e" transform="translate(1558.25 0)"/>
      <use xlink:href="#DejaVuSans-3" transform="translate(1616.15625 0)"/>
      <use xlink:href="#DejaVuSans-20" transform="translate(1647.9375 0)"/>
      <use xlink:href="#DejaVuSans-3" transform="translate(1731.734375 0)"/>
      <use xlink:href="#DejaVuSans-14" transform="translate(1763.515625 0)"/>
      <use xlink:href="#DejaVuSans-c" transform="translate(1827.140625 0)"/>
     </g>
    </g>
   </g>
   <g id="line2d_29">
    <path d="M 480.925289 313.073094 
L 527.016439 312.917636 
L 531.211629 312.717275 
L 532.833769 312.437416 
L 533.728743 312.072024 
L 534.344037 311.577352 
L 534.791524 310.935623 
L 535.183075 309.974508 
L 535.518691 308.583454 
L 535.854306 306.246435 
L 536.301793 301.069594 
L 536.637408 297.822992 
L 536.693344 297.715464 
L 536.74928 297.775492 
L 536.917087 298.872813 
L 537.923933 308.782424 
L 538.37142 310.400227 
L 538.818907 311.264189 
L 539.378265 311.856675 
L 540.049495 312.238861 
L 541.056341 312.527359 
L 542.678481 312.726463 
L 545.866825 312.850994 
L 554.033461 312.889335 
L 576.911229 312.742271 
L 594.698833 312.43774 
L 605.326647 312.0495 
L 612.374566 311.583533 
L 617.408794 311.041033 
L 621.212432 310.418881 
L 624.177033 309.720432 
L 626.582275 308.935759 
L 628.595966 308.05112 
L 630.329978 307.045109 
L 631.78431 305.952383 
L 633.126771 304.660524 
L 634.301424 303.221741 
L 635.364206 301.579661 
L 636.371051 299.617039 
L 637.321961 297.266097 
L 638.216935 294.445551 
L 639.055973 291.05917 
L 639.839075 286.995218 
L 640.622177 281.698122 
L 641.349343 275.195875 
L 642.020573 267.225147 
L 642.691804 256.456789 
L 643.307098 242.883317 
L 643.866457 225.834246 
L 644.425815 201.760101 
L 644.929238 170.484154 
L 645.432661 124.01609 
L 645.880148 60.814738 
L 646.180062 -1 
M 651.229758 -1 
L 651.697477 87.761961 
L 652.256836 152.212488 
L 652.816195 192.581488 
L 653.431489 221.685469 
L 654.10272 242.881828 
L 654.77395 257.489993 
L 655.501116 268.716525 
L 656.284218 277.394017 
L 657.06732 283.758488 
L 657.906358 288.861213 
L 658.801332 292.967069 
L 659.752242 296.28515 
L 660.759087 298.979509 
L 661.821869 301.178521 
L 662.940586 302.982626 
L 664.115239 304.470515 
L 665.401764 305.75369 
L 666.856096 306.888653 
L 668.478236 307.871064 
L 670.380056 308.753841 
L 672.61749 309.534813 
L 675.302412 310.224215 
L 678.602627 310.830179 
L 682.741881 311.354771 
L 688.16766 311.807351 
L 695.551194 312.186655 
L 706.067136 312.488838 
L 721.393562 312.692258 
L 737.223412 312.696827 
L 744.886625 312.508424 
L 748.746199 312.21246 
L 751.095506 311.822795 
L 752.66171 311.349788 
L 753.780427 310.798526 
L 754.675401 310.122246 
L 755.402567 309.308092 
L 756.073797 308.202334 
L 756.633156 306.851342 
L 757.136579 305.084313 
L 757.640002 302.443539 
L 758.087488 298.838894 
L 758.534975 293.107036 
L 758.926526 284.883955 
L 759.318077 270.925762 
L 759.653693 250.376332 
L 759.989308 215.992447 
L 760.716474 127.48904 
L 760.828346 132.049328 
L 761.052089 159.439571 
L 761.667384 242.234687 
L 762.114871 271.665586 
L 762.562357 286.725811 
L 763.009844 295.057108 
L 763.513267 300.525301 
L 764.072626 304.147204 
L 764.631984 306.408607 
L 765.247279 308.030856 
L 765.918509 309.205676 
L 766.701611 310.120144 
L 767.596585 310.814402 
L 768.715302 311.381373 
L 770.113699 311.829331 
L 772.071454 312.204056 
L 774.924183 312.502065 
L 779.510924 312.7329 
L 787.957239 312.902516 
L 807.14324 313.019463 
L 816.484529 313.043314 
L 816.484529 313.043314 
" clip-path="url(#p48ef95b6e0)" style="fill: none; stroke: #c00000; stroke-width: 1.8; stroke-linecap: square"/>
   </g>
   <g id="line2d_30">
    <path d="M 648.704909 313.706953 
L 648.704909 44.706592 
" clip-path="url(#p48ef95b6e0)" style="fill: none; stroke: #888888; stroke-width: 0.8; stroke-linecap: square"/>
   </g>
   <g id="patch_10">
    <path d="M 480.925289 313.706953 
L 480.925289 44.706592 
" style="fill: none; stroke: #888888; stroke-width: 0.8; stroke-linejoin: miter; stroke-linecap: square"/>
   </g>
   <g id="patch_11">
    <path d="M 480.925289 313.706953 
L 816.484529 313.706953 
" style="fill: none; stroke: #888888; stroke-width: 0.8; stroke-linejoin: miter; stroke-linecap: square"/>
   </g>
   <g id="patch_12">
    <path d="M 665.163983 59.932978 
Q 659.212703 58.972323 654.475545 58.207651 
" style="fill: none; stroke: #3f8f5f; stroke-width: 1.1; stroke-linecap: round"/>
    <path d="M 658.468731 61.080709 
L 654.475545 58.207651 
L 659.169903 56.736936 
" style="fill: none; stroke: #3f8f5f; stroke-width: 1.1; stroke-linecap: round"/>
   </g>
   <g id="text_29">
    <!-- Rayleigh line, far off scale -->
    <g style="fill: #3f8f5f" transform="translate(669.139606 68.790563) scale(0.11 -0.11)">
     <defs>
      <path id="DejaVuSans-13ae" d="M 4531 4863 
L 4531 4384 
L 3981 4384 
Q 3672 4384 3551 4259 
Q 3431 4134 3431 3809 
L 3431 3500 
L 4378 3500 
L 4378 3053 
L 3431 3053 
L 3431 0 
L 2853 0 
L 2853 3053 
L 1275 3053 
L 1275 0 
L 697 0 
L 697 3053 
L 147 3053 
L 147 3500 
L 697 3500 
L 697 3744 
Q 697 4328 969 4595 
Q 1241 4863 1831 4863 
L 2375 4863 
L 2375 4384 
L 1825 4384 
Q 1516 4384 1394 4259 
Q 1275 4134 1275 3809 
L 1275 3500 
L 2853 3500 
L 2853 3744 
Q 2853 4328 3125 4595 
Q 3397 4863 3988 4863 
L 4531 4863 
z
" transform="scale(0.015625)"/>
     </defs>
     <use xlink:href="#DejaVuSans-35"/>
     <use xlink:href="#DejaVuSans-44" transform="translate(67.28125 0)"/>
     <use xlink:href="#DejaVuSans-5c" transform="translate(128.5625 0)"/>
     <use xlink:href="#DejaVuSans-4f" transform="translate(187.75 0)"/>
     <use xlink:href="#DejaVuSans-48" transform="translate(215.53125 0)"/>
     <use xlink:href="#DejaVuSans-4c" transform="translate(277.0625 0)"/>
     <use xlink:href="#DejaVuSans-4a" transform="translate(304.84375 0)"/>
     <use xlink:href="#DejaVuSans-4b" transform="translate(368.328125 0)"/>
     <use xlink:href="#DejaVuSans-3" transform="translate(431.703125 0)"/>
     <use xlink:href="#DejaVuSans-4f" transform="translate(463.484375 0)"/>
     <use xlink:href="#DejaVuSans-4c" transform="translate(491.265625 0)"/>
     <use xlink:href="#DejaVuSans-51" transform="translate(519.046875 0)"/>
     <use xlink:href="#DejaVuSans-48" transform="translate(582.421875 0)"/>
     <use xlink:href="#DejaVuSans-f" transform="translate(643.953125 0)"/>
     <use xlink:href="#DejaVuSans-3" transform="translate(675.734375 0)"/>
     <use xlink:href="#DejaVuSans-49" transform="translate(707.515625 0)"/>
     <use xlink:href="#DejaVuSans-44" transform="translate(742.71875 0)"/>
     <use xlink:href="#DejaVuSans-55" transform="translate(804 0)"/>
     <use xlink:href="#DejaVuSans-3" transform="translate(845.109375 0)"/>
     <use xlink:href="#DejaVuSans-52" transform="translate(876.890625 0)"/>
     <use xlink:href="#DejaVuSans-13ae" transform="translate(938.078125 0)"/>
     <use xlink:href="#DejaVuSans-3" transform="translate(1006.96875 0)"/>
     <use xlink:href="#DejaVuSans-56" transform="translate(1038.75 0)"/>
     <use xlink:href="#DejaVuSans-46" transform="translate(1090.84375 0)"/>
     <use xlink:href="#DejaVuSans-44" transform="translate(1145.828125 0)"/>
     <use xlink:href="#DejaVuSans-4f" transform="translate(1207.109375 0)"/>
     <use xlink:href="#DejaVuSans-48" transform="translate(1234.890625 0)"/>
    </g>
    <!-- (removed by a notch filter) -->
    <g style="fill: #3f8f5f" transform="translate(669.139606 81.993571) scale(0.11 -0.11)">
     <defs>
      <path id="DejaVuSans-45" d="M 3116 1747 
Q 3116 2381 2855 2742 
Q 2594 3103 2138 3103 
Q 1681 3103 1420 2742 
Q 1159 2381 1159 1747 
Q 1159 1113 1420 752 
Q 1681 391 2138 391 
Q 2594 391 2855 752 
Q 3116 1113 3116 1747 
z
M 1159 2969 
Q 1341 3281 1617 3432 
Q 1894 3584 2278 3584 
Q 2916 3584 3314 3078 
Q 3713 2572 3713 1747 
Q 3713 922 3314 415 
Q 2916 -91 2278 -91 
Q 1894 -91 1617 61 
Q 1341 213 1159 525 
L 1159 0 
L 581 0 
L 581 4863 
L 1159 4863 
L 1159 2969 
z
" transform="scale(0.015625)"/>
      <path id="DejaVuSans-13af" d="M 3431 3500 
L 3431 0 
L 2853 0 
L 2853 3053 
L 1275 3053 
L 1275 0 
L 697 0 
L 697 3053 
L 147 3053 
L 147 3500 
L 697 3500 
L 697 3744 
Q 697 4316 967 4589 
Q 1238 4863 1797 4863 
L 2375 4863 
L 2375 4384 
L 1825 4384 
Q 1516 4384 1395 4259 
Q 1275 4134 1275 3809 
L 1275 3500 
L 3431 3500 
z
M 2853 4856 
L 3431 4856 
L 3431 4128 
L 2853 4128 
L 2853 4856 
z
" transform="scale(0.015625)"/>
     </defs>
     <use xlink:href="#DejaVuSans-b"/>
     <use xlink:href="#DejaVuSans-55" transform="translate(39.015625 0)"/>
     <use xlink:href="#DejaVuSans-48" transform="translate(77.921875 0)"/>
     <use xlink:href="#DejaVuSans-50" transform="translate(139.453125 0)"/>
     <use xlink:href="#DejaVuSans-52" transform="translate(236.859375 0)"/>
     <use xlink:href="#DejaVuSans-59" transform="translate(298.046875 0)"/>
     <use xlink:href="#DejaVuSans-48" transform="translate(357.234375 0)"/>
     <use xlink:href="#DejaVuSans-47" transform="translate(418.765625 0)"/>
     <use xlink:href="#DejaVuSans-3" transform="translate(482.25 0)"/>
     <use xlink:href="#DejaVuSans-45" transform="translate(514.03125 0)"/>
     <use xlink:href="#DejaVuSans-5c" transform="translate(577.515625 0)"/>
     <use xlink:href="#DejaVuSans-3" transform="translate(636.703125 0)"/>
     <use xlink:href="#DejaVuSans-44" transform="translate(668.484375 0)"/>
     <use xlink:href="#DejaVuSans-3" transform="translate(729.765625 0)"/>
     <use xlink:href="#DejaVuSans-51" transform="translate(761.546875 0)"/>
     <use xlink:href="#DejaVuSans-52" transform="translate(824.921875 0)"/>
     <use xlink:href="#DejaVuSans-57" transform="translate(886.109375 0)"/>
     <use xlink:href="#DejaVuSans-46" transform="translate(925.3125 0)"/>
     <use xlink:href="#DejaVuSans-4b" transform="translate(980.296875 0)"/>
     <use xlink:href="#DejaVuSans-3" transform="translate(1043.671875 0)"/>
     <use xlink:href="#DejaVuSans-13af" transform="translate(1075.453125 0)"/>
     <use xlink:href="#DejaVuSans-4f" transform="translate(1138.4375 0)"/>
     <use xlink:href="#DejaVuSans-57" transform="translate(1166.21875 0)"/>
     <use xlink:href="#DejaVuSans-48" transform="translate(1205.421875 0)"/>
     <use xlink:href="#DejaVuSans-55" transform="translate(1266.953125 0)"/>
     <use xlink:href="#DejaVuSans-c" transform="translate(1308.0625 0)"/>
    </g>
   </g>
   <g id="patch_13">
    <path d="M 726.192636 174.424381 
Q 741.295911 156.706192 755.601372 139.923947 
" style="fill: none; stroke: #c00000; stroke-width: 1.1; stroke-linecap: round"/>
    <path d="M 751.072756 141.84531 
L 755.601372 139.923947 
L 754.421292 144.699658 
" style="fill: none; stroke: #c00000; stroke-width: 1.1; stroke-linecap: round"/>
   </g>
   <g id="text_30">
    <!-- Stokes -->
    <g style="fill: #c00000" transform="translate(706.84701 187.405093) scale(0.11 -0.11)">
     <use xlink:href="#DejaVuSans-36"/>
     <use xlink:href="#DejaVuSans-57" transform="translate(63.484375 0)"/>
     <use xlink:href="#DejaVuSans-52" transform="translate(102.6875 0)"/>
     <use xlink:href="#DejaVuSans-4e" transform="translate(163.875 0)"/>
     <use xlink:href="#DejaVuSans-48" transform="translate(218.21875 0)"/>
     <use xlink:href="#DejaVuSans-56" transform="translate(279.75 0)"/>
    </g>
    <!-- $+$520.7 cm$^{-1}$ -->
    <g style="fill: #c00000" transform="translate(670.529823 202.47982) scale(0.11 -0.11)">
     <use xlink:href="#DejaVuSans-e" transform="translate(0 0.665625)"/>
     <use xlink:href="#DejaVuSans-18" transform="translate(83.789062 0.665625)"/>
     <use xlink:href="#DejaVuSans-15" transform="translate(147.412109 0.665625)"/>
     <use xlink:href="#DejaVuSans-13" transform="translate(211.035156 0.665625)"/>
     <use xlink:href="#DejaVuSans-11" transform="translate(274.658203 0.665625)"/>
     <use xlink:href="#DejaVuSans-1a" transform="translate(306.445312 0.665625)"/>
     <use xlink:href="#DejaVuSans-3" transform="translate(370.068359 0.665625)"/>
     <use xlink:href="#DejaVuSans-46" transform="translate(401.855469 0.665625)"/>
     <use xlink:href="#DejaVuSans-50" transform="translate(456.835938 0.665625)"/>
     <use xlink:href="#DejaVuSans-c9c" transform="translate(555.205078 41.965625) scale(0.7)"/>
     <use xlink:href="#DejaVuSans-14" transform="translate(613.857422 41.965625) scale(0.7)"/>
    </g>
    <!-- intensity 1.00 -->
    <g style="fill: #c00000" transform="translate(667.67326 215.682828) scale(0.11 -0.11)">
     <use xlink:href="#DejaVuSans-4c"/>
     <use xlink:href="#DejaVuSans-51" transform="translate(27.78125 0)"/>
     <use xlink:href="#DejaVuSans-57" transform="translate(91.15625 0)"/>
     <use xlink:href="#DejaVuSans-48" transform="translate(130.359375 0)"/>
     <use xlink:href="#DejaVuSans-51" transform="translate(191.890625 0)"/>
     <use xlink:href="#DejaVuSans-56" transform="translate(255.265625 0)"/>
     <use xlink:href="#DejaVuSans-4c" transform="translate(307.359375 0)"/>
     <use xlink:href="#DejaVuSans-57" transform="translate(335.140625 0)"/>
     <use xlink:href="#DejaVuSans-5c" transform="translate(374.34375 0)"/>
     <use xlink:href="#DejaVuSans-3" transform="translate(433.53125 0)"/>
     <use xlink:href="#DejaVuSans-14" transform="translate(465.3125 0)"/>
     <use xlink:href="#DejaVuSans-11" transform="translate(528.9375 0)"/>
     <use xlink:href="#DejaVuSans-13" transform="translate(560.71875 0)"/>
     <use xlink:href="#DejaVuSans-13" transform="translate(624.34375 0)"/>
    </g>
   </g>
   <g id="patch_14">
    <path d="M 532.689926 260.511596 
Q 534.579296 276.626991 536.325461 291.520913 
" style="fill: none; stroke: #3a62b8; stroke-width: 1.1; stroke-linecap: round"/>
    <path d="M 537.998148 286.894671 
L 536.325461 291.520913 
L 533.62808 287.407018 
" style="fill: none; stroke: #3a62b8; stroke-width: 1.1; stroke-linecap: round"/>
   </g>
   <g id="text_31">
    <!-- anti-Stokes -->
    <g style="fill: #3a62b8" transform="translate(488.453861 224.508591) scale(0.11 -0.11)">
     <use xlink:href="#DejaVuSans-44"/>
     <use xlink:href="#DejaVuSans-51" transform="translate(61.28125 0)"/>
     <use xlink:href="#DejaVuSans-57" transform="translate(124.65625 0)"/>
     <use xlink:href="#DejaVuSans-4c" transform="translate(163.859375 0)"/>
     <use xlink:href="#DejaVuSans-10" transform="translate(191.640625 0)"/>
     <use xlink:href="#DejaVuSans-36" transform="translate(227.71875 0)"/>
     <use xlink:href="#DejaVuSans-57" transform="translate(291.203125 0)"/>
     <use xlink:href="#DejaVuSans-52" transform="translate(330.40625 0)"/>
     <use xlink:href="#DejaVuSans-4e" transform="translate(391.59375 0)"/>
     <use xlink:href="#DejaVuSans-48" transform="translate(445.9375 0)"/>
     <use xlink:href="#DejaVuSans-56" transform="translate(507.46875 0)"/>
    </g>
    <!-- $-$520.7 cm$^{-1}$ -->
    <g style="fill: #3a62b8" transform="translate(488.453861 239.583318) scale(0.11 -0.11)">
     <use xlink:href="#DejaVuSans-c9c" transform="translate(0 0.665625)"/>
     <use xlink:href="#DejaVuSans-18" transform="translate(83.789062 0.665625)"/>
     <use xlink:href="#DejaVuSans-15" transform="translate(147.412109 0.665625)"/>
     <use xlink:href="#DejaVuSans-13" transform="translate(211.035156 0.665625)"/>
     <use xlink:href="#DejaVuSans-11" transform="translate(274.658203 0.665625)"/>
     <use xlink:href="#DejaVuSans-1a" transform="translate(306.445312 0.665625)"/>
     <use xlink:href="#DejaVuSans-3" transform="translate(370.068359 0.665625)"/>
     <use xlink:href="#DejaVuSans-46" transform="translate(401.855469 0.665625)"/>
     <use xlink:href="#DejaVuSans-50" transform="translate(456.835938 0.665625)"/>
     <use xlink:href="#DejaVuSans-c9c" transform="translate(555.205078 41.965625) scale(0.7)"/>
     <use xlink:href="#DejaVuSans-14" transform="translate(613.857422 41.965625) scale(0.7)"/>
    </g>
    <!-- intensity 0.082 -->
    <g style="fill: #3a62b8" transform="translate(488.453861 252.786326) scale(0.11 -0.11)">
     <use xlink:href="#DejaVuSans-4c"/>
     <use xlink:href="#DejaVuSans-51" transform="translate(27.78125 0)"/>
     <use xlink:href="#DejaVuSans-57" transform="translate(91.15625 0)"/>
     <use xlink:href="#DejaVuSans-48" transform="translate(130.359375 0)"/>
     <use xlink:href="#DejaVuSans-51" transform="translate(191.890625 0)"/>
     <use xlink:href="#DejaVuSans-56" transform="translate(255.265625 0)"/>
     <use xlink:href="#DejaVuSans-4c" transform="translate(307.359375 0)"/>
     <use xlink:href="#DejaVuSans-57" transform="translate(335.140625 0)"/>
     <use xlink:href="#DejaVuSans-5c" transform="translate(374.34375 0)"/>
     <use xlink:href="#DejaVuSans-3" transform="translate(433.53125 0)"/>
     <use xlink:href="#DejaVuSans-13" transform="translate(465.3125 0)"/>
     <use xlink:href="#DejaVuSans-11" transform="translate(528.9375 0)"/>
     <use xlink:href="#DejaVuSans-13" transform="translate(560.71875 0)"/>
     <use xlink:href="#DejaVuSans-1b" transform="translate(624.34375 0)"/>
     <use xlink:href="#DejaVuSans-15" transform="translate(687.96875 0)"/>
    </g>
   </g>
   <g id="text_32">
    <!-- $I_{\mathrm{anti}}/I_{\mathrm{Stokes}}$ -->
    <g style="fill: #8a8a8a" transform="translate(486.302841 63.011031) scale(0.105 -0.105)">
     <defs>
      <path id="DejaVuSans-Oblique-2c" d="M 1081 4666 
L 1716 4666 
L 806 0 
L 172 0 
L 1081 4666 
z
" transform="scale(0.015625)"/>
      <path id="DejaVuSans-12" d="M 1625 4666 
L 2156 4666 
L 531 -594 
L 0 -594 
L 1625 4666 
z
" transform="scale(0.015625)"/>
     </defs>
     <use xlink:href="#DejaVuSans-Oblique-2c" transform="translate(0 0.09375)"/>
     <use xlink:href="#DejaVuSans-44" transform="translate(29.492188 -14.906201) scale(0.7)"/>
     <use xlink:href="#DejaVuSans-51" transform="translate(72.387695 -14.906201) scale(0.7)"/>
     <use xlink:href="#DejaVuSans-57" transform="translate(116.75293 -14.906201) scale(0.7)"/>
     <use xlink:href="#DejaVuSans-4c" transform="translate(144.199219 -14.906201) scale(0.7)"/>
     <use xlink:href="#DejaVuSans-12" transform="translate(166.381836 0.09375)"/>
     <use xlink:href="#DejaVuSans-Oblique-2c" transform="translate(200.073242 0.09375)"/>
     <use xlink:href="#DejaVuSans-36" transform="translate(229.56543 -14.906201) scale(0.7)"/>
     <use xlink:href="#DejaVuSans-57" transform="translate(273.999023 -14.906201) scale(0.7)"/>
     <use xlink:href="#DejaVuSans-52" transform="translate(301.445312 -14.906201) scale(0.7)"/>
     <use xlink:href="#DejaVuSans-4e" transform="translate(344.272461 -14.906201) scale(0.7)"/>
     <use xlink:href="#DejaVuSans-48" transform="translate(382.00957 -14.906201) scale(0.7)"/>
     <use xlink:href="#DejaVuSans-56" transform="translate(425.075977 -14.906201) scale(0.7)"/>
    </g>
    <!-- $= e^{-hc\tilde{\nu}/k_BT}$ $= 0.082$ -->
    <g style="fill: #8a8a8a" transform="translate(486.302841 77.925542) scale(0.105 -0.105)">
     <defs>
      <path id="DejaVuSans-Oblique-48" d="M 3078 2063 
Q 3088 2113 3092 2166 
Q 3097 2219 3097 2272 
Q 3097 2653 2873 2875 
Q 2650 3097 2266 3097 
Q 1838 3097 1509 2826 
Q 1181 2556 1013 2059 
L 3078 2063 
z
M 3578 1613 
L 903 1613 
Q 884 1494 878 1425 
Q 872 1356 872 1306 
Q 872 872 1139 634 
Q 1406 397 1894 397 
Q 2269 397 2603 481 
Q 2938 566 3225 728 
L 3116 159 
Q 2806 34 2476 -28 
Q 2147 -91 1806 -91 
Q 1078 -91 686 257 
Q 294 606 294 1247 
Q 294 1794 489 2264 
Q 684 2734 1063 3103 
Q 1306 3334 1642 3459 
Q 1978 3584 2356 3584 
Q 2950 3584 3301 3228 
Q 3653 2872 3653 2272 
Q 3653 2128 3634 1964 
Q 3616 1800 3578 1613 
z
" transform="scale(0.015625)"/>
      <path id="DejaVuSans-Oblique-4e" d="M 1172 4863 
L 1747 4863 
L 1197 2028 
L 3169 3500 
L 3916 3500 
L 1716 1825 
L 3322 0 
L 2625 0 
L 1131 1709 
L 800 0 
L 225 0 
L 1172 4863 
z
" transform="scale(0.015625)"/>
      <path id="DejaVuSans-Oblique-25" d="M 1081 4666 
L 2694 4666 
Q 3350 4666 3675 4422 
Q 4000 4178 4000 3688 
Q 4000 3238 3720 2911 
Q 3441 2584 2988 2516 
Q 3375 2428 3569 2181 
Q 3763 1934 3763 1522 
Q 3763 819 3242 409 
Q 2722 0 1819 0 
L 172 0 
L 1081 4666 
z
M 1234 2228 
L 903 519 
L 1919 519 
Q 2491 519 2800 781 
Q 3109 1044 3109 1522 
Q 3109 1891 2904 2059 
Q 2700 2228 2247 2228 
L 1234 2228 
z
M 1606 4147 
L 1331 2741 
L 2272 2741 
Q 2775 2741 3058 2959 
Q 3341 3178 3341 3566 
Q 3341 3869 3150 4008 
Q 2959 4147 2541 4147 
L 1606 4147 
z
" transform="scale(0.015625)"/>
      <path id="DejaVuSans-Oblique-37" d="M 378 4666 
L 4325 4666 
L 4225 4134 
L 2559 4134 
L 1759 0 
L 1125 0 
L 1925 4134 
L 275 4134 
L 378 4666 
z
" transform="scale(0.015625)"/>
     </defs>
     <use xlink:href="#DejaVuSans-20" transform="translate(19.482422 0.032813)"/>
     <use xlink:href="#DejaVuSans-Oblique-48" transform="translate(122.753906 0.032813)"/>
     <use xlink:href="#DejaVuSans-c9c" transform="translate(188.92724 41.332813) scale(0.7)"/>
     <use xlink:href="#DejaVuSans-Oblique-4b" transform="translate(247.579583 41.332813) scale(0.7)"/>
     <use xlink:href="#DejaVuSans-Oblique-46" transform="translate(291.944818 41.332813) scale(0.7)"/>
     <use xlink:href="#DejaVuSans-2b4" transform="translate(372.050286 43.629688) scale(0.7)"/>
     <use xlink:href="#DejaVuSans-Oblique-351" transform="translate(330.431146 41.332813) scale(0.7)"/>
     <use xlink:href="#DejaVuSans-12" transform="translate(369.532708 41.332813) scale(0.7)"/>
     <use xlink:href="#DejaVuSans-Oblique-4e" transform="translate(393.116693 41.332813) scale(0.7)"/>
     <use xlink:href="#DejaVuSans-Oblique-25" transform="translate(433.653802 30.832847) scale(0.49)"/>
     <use xlink:href="#DejaVuSans-Oblique-37" transform="translate(469.183587 41.332813) scale(0.7)"/>
     <use xlink:href="#DejaVuSans-3" transform="translate(514.676751 0.032813)"/>
     <use xlink:href="#DejaVuSans-20" transform="translate(565.946283 0.032813)"/>
     <use xlink:href="#DejaVuSans-13" transform="translate(669.217767 0.032813)"/>
     <use xlink:href="#DejaVuSans-11" transform="translate(732.840814 0.032813)"/>
     <use xlink:href="#DejaVuSans-13" transform="translate(764.627923 0.032813)"/>
     <use xlink:href="#DejaVuSans-1b" transform="translate(828.25097 0.032813)"/>
     <use xlink:href="#DejaVuSans-15" transform="translate(891.874017 0.032813)"/>
    </g>
    <!-- at 300 K: Stokes is -->
    <g style="fill: #8a8a8a" transform="translate(486.302841 90.528414) scale(0.105 -0.105)">
     <use xlink:href="#DejaVuSans-44"/>
     <use xlink:href="#DejaVuSans-57" transform="translate(61.28125 0)"/>
     <use xlink:href="#DejaVuSans-3" transform="translate(100.484375 0)"/>
     <use xlink:href="#DejaVuSans-16" transform="translate(132.265625 0)"/>
     <use xlink:href="#DejaVuSans-13" transform="translate(195.890625 0)"/>
     <use xlink:href="#DejaVuSans-13" transform="translate(259.515625 0)"/>
     <use xlink:href="#DejaVuSans-3" transform="translate(323.140625 0)"/>
     <use xlink:href="#DejaVuSans-2e" transform="translate(354.921875 0)"/>
     <use xlink:href="#DejaVuSans-1d" transform="translate(420.5 0)"/>
     <use xlink:href="#DejaVuSans-3" transform="translate(454.1875 0)"/>
     <use xlink:href="#DejaVuSans-36" transform="translate(485.96875 0)"/>
     <use xlink:href="#DejaVuSans-57" transform="translate(549.453125 0)"/>
     <use xlink:href="#DejaVuSans-52" transform="translate(588.65625 0)"/>
     <use xlink:href="#DejaVuSans-4e" transform="translate(649.84375 0)"/>
     <use xlink:href="#DejaVuSans-48" transform="translate(704.1875 0)"/>
     <use xlink:href="#DejaVuSans-56" transform="translate(765.71875 0)"/>
     <use xlink:href="#DejaVuSans-3" transform="translate(817.8125 0)"/>
     <use xlink:href="#DejaVuSans-4c" transform="translate(849.59375 0)"/>
     <use xlink:href="#DejaVuSans-56" transform="translate(877.375 0)"/>
    </g>
    <!-- 12 times stronger -->
    <g style="fill: #8a8a8a" transform="translate(486.302841 103.131285) scale(0.105 -0.105)">
     <use xlink:href="#DejaVuSans-14"/>
     <use xlink:href="#DejaVuSans-15" transform="translate(63.625 0)"/>
     <use xlink:href="#DejaVuSans-3" transform="translate(127.25 0)"/>
     <use xlink:href="#DejaVuSans-57" transform="translate(159.03125 0)"/>
     <use xlink:href="#DejaVuSans-4c" transform="translate(198.234375 0)"/>
     <use xlink:href="#DejaVuSans-50" transform="translate(226.015625 0)"/>
     <use xlink:href="#DejaVuSans-48" transform="translate(323.421875 0)"/>
     <use xlink:href="#DejaVuSans-56" transform="translate(384.953125 0)"/>
     <use xlink:href="#DejaVuSans-3" transform="translate(437.046875 0)"/>
     <use xlink:href="#DejaVuSans-56" transform="translate(468.828125 0)"/>
     <use xlink:href="#DejaVuSans-57" transform="translate(520.921875 0)"/>
     <use xlink:href="#DejaVuSans-55" transform="translate(560.125 0)"/>
     <use xlink:href="#DejaVuSans-52" transform="translate(599.03125 0)"/>
     <use xlink:href="#DejaVuSans-51" transform="translate(660.21875 0)"/>
     <use xlink:href="#DejaVuSans-4a" transform="translate(723.59375 0)"/>
     <use xlink:href="#DejaVuSans-48" transform="translate(787.078125 0)"/>
     <use xlink:href="#DejaVuSans-55" transform="translate(848.609375 0)"/>
    </g>
   </g>
   <g id="text_33">
    <!-- silicon 520.7 cm$^{-1}$ mode at 300 K -->
    <g style="fill: #8a8a8a" transform="translate(542.954909 20.076221) scale(0.125 -0.125)">
     <use xlink:href="#DejaVuSans-56" transform="translate(0 0.665625)"/>
     <use xlink:href="#DejaVuSans-4c" transform="translate(52.099609 0.665625)"/>
     <use xlink:href="#DejaVuSans-4f" transform="translate(79.882812 0.665625)"/>
     <use xlink:href="#DejaVuSans-4c" transform="translate(107.666016 0.665625)"/>
     <use xlink:href="#DejaVuSans-46" transform="translate(135.449219 0.665625)"/>
     <use xlink:href="#DejaVuSans-52" transform="translate(190.429688 0.665625)"/>
     <use xlink:href="#DejaVuSans-51" transform="translate(251.611328 0.665625)"/>
     <use xlink:href="#DejaVuSans-3" transform="translate(314.990234 0.665625)"/>
     <use xlink:href="#DejaVuSans-18" transform="translate(346.777344 0.665625)"/>
     <use xlink:href="#DejaVuSans-15" transform="translate(410.400391 0.665625)"/>
     <use xlink:href="#DejaVuSans-13" transform="translate(474.023438 0.665625)"/>
     <use xlink:href="#DejaVuSans-11" transform="translate(537.646484 0.665625)"/>
     <use xlink:href="#DejaVuSans-1a" transform="translate(569.433594 0.665625)"/>
     <use xlink:href="#DejaVuSans-3" transform="translate(633.056641 0.665625)"/>
     <use xlink:href="#DejaVuSans-46" transform="translate(664.84375 0.665625)"/>
     <use xlink:href="#DejaVuSans-50" transform="translate(719.824219 0.665625)"/>
     <use xlink:href="#DejaVuSans-c9c" transform="translate(818.193359 41.965625) scale(0.7)"/>
     <use xlink:href="#DejaVuSans-14" transform="translate(876.845703 41.965625) scale(0.7)"/>
     <use xlink:href="#DejaVuSans-3" transform="translate(924.116211 0.665625)"/>
     <use xlink:href="#DejaVuSans-50" transform="translate(955.90332 0.665625)"/>
     <use xlink:href="#DejaVuSans-52" transform="translate(1053.31543 0.665625)"/>
     <use xlink:href="#DejaVuSans-47" transform="translate(1114.49707 0.665625)"/>
     <use xlink:href="#DejaVuSans-48" transform="translate(1177.973633 0.665625)"/>
     <use xlink:href="#DejaVuSans-3" transform="translate(1239.49707 0.665625)"/>
     <use xlink:href="#DejaVuSans-44" transform="translate(1271.28418 0.665625)"/>
     <use xlink:href="#DejaVuSans-57" transform="translate(1332.563477 0.665625)"/>
     <use xlink:href="#DejaVuSans-3" transform="translate(1371.772461 0.665625)"/>
     <use xlink:href="#DejaVuSans-16" transform="translate(1403.55957 0.665625)"/>
     <use xlink:href="#DejaVuSans-13" transform="translate(1467.182617 0.665625)"/>
     <use xlink:href="#DejaVuSans-13" transform="translate(1530.805664 0.665625)"/>
     <use xlink:href="#DejaVuSans-3" transform="translate(1594.428711 0.665625)"/>
     <use xlink:href="#DejaVuSans-2e" transform="translate(1626.21582 0.665625)"/>
    </g>
    <!-- (the $\tilde{\nu}^4$ scattering factor is left out) -->
    <g style="fill: #8a8a8a" transform="translate(539.954909 38.706592) scale(0.125 -0.125)">
     <use xlink:href="#DejaVuSans-b" transform="translate(0 0.032466)"/>
     <use xlink:href="#DejaVuSans-57" transform="translate(39.013672 0.032466)"/>
     <use xlink:href="#DejaVuSans-4b" transform="translate(78.222656 0.032466)"/>
     <use xlink:href="#DejaVuSans-48" transform="translate(141.601562 0.032466)"/>
     <use xlink:href="#DejaVuSans-3" transform="translate(203.125 0.032466)"/>
     <use xlink:href="#DejaVuSans-2b4" transform="translate(295.080078 3.298091)"/>
     <use xlink:href="#DejaVuSans-Oblique-351" transform="translate(234.912109 0.032466)"/>
     <use xlink:href="#DejaVuSans-17" transform="translate(291.728516 53.965625) scale(0.7)"/>
     <use xlink:href="#DejaVuSans-3" transform="translate(338.999023 0.032466)"/>
     <use xlink:href="#DejaVuSans-56" transform="translate(370.786133 0.032466)"/>
     <use xlink:href="#DejaVuSans-46" transform="translate(422.885742 0.032466)"/>
     <use xlink:href="#DejaVuSans-44" transform="translate(477.866211 0.032466)"/>
     <use xlink:href="#DejaVuSans-57" transform="translate(539.145508 0.032466)"/>
     <use xlink:href="#DejaVuSans-57" transform="translate(578.354492 0.032466)"/>
     <use xlink:href="#DejaVuSans-48" transform="translate(617.563477 0.032466)"/>
     <use xlink:href="#DejaVuSans-55" transform="translate(679.086914 0.032466)"/>
     <use xlink:href="#DejaVuSans-4c" transform="translate(720.200195 0.032466)"/>
     <use xlink:href="#DejaVuSans-51" transform="translate(747.983398 0.032466)"/>
     <use xlink:href="#DejaVuSans-4a" transform="translate(811.362305 0.032466)"/>
     <use xlink:href="#DejaVuSans-3" transform="translate(874.838867 0.032466)"/>
     <use xlink:href="#DejaVuSans-49" transform="translate(906.625977 0.032466)"/>
     <use xlink:href="#DejaVuSans-44" transform="translate(941.831055 0.032466)"/>
     <use xlink:href="#DejaVuSans-46" transform="translate(1003.110352 0.032466)"/>
     <use xlink:href="#DejaVuSans-57" transform="translate(1058.09082 0.032466)"/>
     <use xlink:href="#DejaVuSans-52" transform="translate(1097.299805 0.032466)"/>
     <use xlink:href="#DejaVuSans-55" transform="translate(1158.481445 0.032466)"/>
     <use xlink:href="#DejaVuSans-3" transform="translate(1199.594727 0.032466)"/>
     <use xlink:href="#DejaVuSans-4c" transform="translate(1231.381836 0.032466)"/>
     <use xlink:href="#DejaVuSans-56" transform="translate(1259.165039 0.032466)"/>
     <use xlink:href="#DejaVuSans-3" transform="translate(1311.264648 0.032466)"/>
     <use xlink:href="#DejaVuSans-4f" transform="translate(1343.051758 0.032466)"/>
     <use xlink:href="#DejaVuSans-48" transform="translate(1370.834961 0.032466)"/>
     <use xlink:href="#DejaVuSans-49" transform="translate(1432.358398 0.032466)"/>
     <use xlink:href="#DejaVuSans-57" transform="translate(1465.563477 0.032466)"/>
     <use xlink:href="#DejaVuSans-3" transform="translate(1504.772461 0.032466)"/>
     <use xlink:href="#DejaVuSans-52" transform="translate(1536.55957 0.032466)"/>
     <use xlink:href="#DejaVuSans-58" transform="translate(1597.741211 0.032466)"/>
     <use xlink:href="#DejaVuSans-57" transform="translate(1661.120117 0.032466)"/>
     <use xlink:href="#DejaVuSans-c" transform="translate(1700.329102 0.032466)"/>
    </g>
   </g>
  </g>
 </g>
 <defs>
  <clipPath id="p7a513bd170">
   <rect x="7.2" y="44.706592" width="385.893127" height="269.000361"/>
  </clipPath>
  <clipPath id="p48ef95b6e0">
   <rect x="480.925289" y="44.706592" width="335.559241" height="269.000361"/>
  </clipPath>
 </defs>
</svg>
